<?xml version="1.0" encoding="utf-8"?>
<!-- Generator: Adobe Illustrator 20.1.0, SVG Export Plug-In . SVG Version: 6.00 Build 0)  -->
<svg version="1.0" id="Layer_1" xmlns="http://www.w3.org/2000/svg" xmlns:xlink="http://www.w3.org/1999/xlink" x="0px" y="0px"
	 viewBox="0 0 50 50" style="enable-background:new 0 0 50 50;" xml:space="preserve">
<style type="text/css">
	.st0{fill-rule:evenodd;clip-rule:evenodd;fill:#FFFFFF;}
	.st1{fill-rule:evenodd;clip-rule:evenodd;fill:#C2242A;}
	.st2{fill-rule:evenodd;clip-rule:evenodd;fill:#1F1D1E;}
	.st3{fill:none;stroke:#1F1D1E;stroke-width:0.036;stroke-miterlimit:10;}
</style>
<polyline class="st0" points="16.2991,34.374 10.5149,34.374 24.9309,9.3691 39.4118,34.374 16.2991,34.374 "/>
<path class="st1" d="M38.9328,36.1475c0.7583-0.0088,1.4522-0.4141,1.8311-1.0616c0.3779-0.6591,0.3779-1.4697,0-2.1357
	L26.8381,8.8408c-0.3789-0.6611-1.083-1.0664-1.8432-1.0664c-0.7579,0-1.46,0.4033-1.8399,1.0596L9.2351,32.9502
	c-0.3779,0.6562-0.3779,1.4678,0,2.126c0.3789,0.667,1.082,1.0713,1.8379,1.0713H38.9328 M12.3078,33.3096h25.3824L25.0041,11.3242
	L12.3078,33.3096z"/>
<polyline class="st2" points="13.678,32.2998 35.8259,32.292 30.969,23.8584 13.678,32.2998 "/>
<polygon class="st3" points="13.678,32.2998 35.8259,32.292 30.969,23.8584 "/>
</svg>
