<?xml version="1.0" encoding="utf-8"?>
<!-- Generator: Adobe Illustrator 20.1.0, SVG Export Plug-In . SVG Version: 6.00 Build 0)  -->
<svg version="1.0" id="Layer_1" xmlns="http://www.w3.org/2000/svg" xmlns:xlink="http://www.w3.org/1999/xlink" x="0px" y="0px"
	 viewBox="0 0 50 50" style="enable-background:new 0 0 50 50;" xml:space="preserve">
<style type="text/css">
	.st0{fill-rule:evenodd;clip-rule:evenodd;fill:#FFFFFF;}
	.st1{fill-rule:evenodd;clip-rule:evenodd;fill:#C2242A;}
	.st2{fill-rule:evenodd;clip-rule:evenodd;fill:#1F1D1E;}
</style>
<polyline class="st0" points="18.3191,34.3321 10.6159,34.3321 24.927,9.0235 39.446,34.3321 18.3191,34.3321 "/>
<path class="st1" d="M11.1282,36.1475c-0.772,0.0078-1.4551-0.3975-1.8409-1.0606c-0.3862-0.663-0.3862-1.4628,0-2.1279
	L23.1589,8.9424c0.3862-0.665,1.0684-1.0596,1.8413-1.0596c0.7637,0,1.4449,0.3946,1.8311,1.0596L40.7112,32.959
	c0.3881,0.6543,0.3881,1.4551,0,2.1182c-0.3863,0.666-1.0762,1.0703-1.8399,1.0703H11.1282 M37.6501,33.3194h-25.31L25.0002,11.42
	L37.6501,33.3194z"/>
<polyline class="st2" points="25.0422,30.1641 26.3972,32.5108 23.6882,32.5108 24.365,31.3369 25.0422,30.1641 "/>
<polyline class="st2" points="25.0432,24.6963 21.4719,18.5137 28.612,18.5137 25.0432,24.6963 "/>
</svg>
