<?xml version="1.0" encoding="utf-8"?>
<!-- Generator: Adobe Illustrator 20.1.0, SVG Export Plug-In . SVG Version: 6.00 Build 0)  -->
<svg version="1.0" id="Layer_1" xmlns="http://www.w3.org/2000/svg" xmlns:xlink="http://www.w3.org/1999/xlink" x="0px" y="0px"
	 viewBox="0 0 50 50" style="enable-background:new 0 0 50 50;" xml:space="preserve">
<style type="text/css">
	.st0{fill:#FFFFFF;stroke:#272525;stroke-width:0.53;}
	.st1{fill:#272525;}
	.st2{fill-rule:evenodd;clip-rule:evenodd;fill:#FFFFFF;}
	.st3{fill-rule:evenodd;clip-rule:evenodd;fill:#C2242A;}
	.st4{fill:#1F1D1E;}
</style>
<path class="st0" d="M35.2188,46.4375H14.7813c-0.55,0-1-0.45-1-1v-9.8983c0-0.55,0.45-1,1-1h20.4375c0.55,0,1,0.45,1,1v9.8983
	C36.2188,45.9875,35.7687,46.4375,35.2188,46.4375z"/>
<g>
	<path class="st1" d="M19.4092,39.3564c0.0332-0.0098,0.0693-0.0283,0.1001-0.0488c0.2598-0.1191,0.437-0.335,0.5264-0.6387
		c0.0947-0.2764,0.0532-0.5488-0.1309-0.8193l-0.0869-0.0791c-0.0068-0.0117-0.0156-0.0205-0.0229-0.0225
		c-0.0137-0.0127-0.0293-0.0234-0.0454-0.0322l-0.0181-0.0273l-0.0464-0.0244c-0.0435-0.0254-0.1011-0.0479-0.1714-0.0664
		l-0.0679-0.0254l-0.2383-0.0557l-0.02,0.001l-0.2695-0.0635l-0.0112,0.001l-0.0664-0.0156
		c-0.0195-0.0039-0.042-0.0107-0.0767-0.0234l-0.0801-0.0166h-0.0283l-0.0811-0.0371l-0.062-0.0303
		c-0.0693-0.0781-0.105-0.1777-0.1064-0.2969c0.062-0.1748,0.1973-0.2637,0.4155-0.2705c0.2988-0.0293,0.5313,0.0811,0.729,0.3398
		l0.0288,0.0381l0.0391-0.0273c0.0176-0.0117,0.0342-0.0273,0.0508-0.0479c0.0352-0.0186,0.0669-0.0439,0.0938-0.0781
		c0.0273-0.0137,0.0527-0.0332,0.0757-0.0596l0.064-0.0498c0.0225-0.0146,0.0459-0.0352,0.0713-0.0635l0.0781-0.0469l-0.0303-0.0439
		c-0.272-0.3945-0.6934-0.5664-1.2407-0.5215c-0.6348,0.0537-0.9629,0.3828-0.9751,0.9854c0.0601,0.499,0.3667,0.7842,0.8999,0.8457
		c0.0381,0.0137,0.0811,0.0244,0.1279,0.0322l0.061,0.0176l0.0112-0.001l0.0747,0.0166h0.0151
		c0.0352,0.0127,0.0747,0.0225,0.1177,0.0293l0.1016,0.0254l0.0146,0.0127l0.0156,0.002c0.0195,0.0039,0.0425,0.0107,0.0713,0.0225
		l0.0156,0.0049c0.1104,0.083,0.1582,0.1973,0.147,0.3398c-0.0098,0.0352-0.0278,0.0713-0.0552,0.1094l-0.0093,0.0215
		c-0.0239,0.0176-0.0483,0.041-0.0737,0.0684c-0.4512,0.209-0.8237,0.1084-1.1406-0.3096l-0.0151-0.0195h-0.0625l-0.0122,0.0068
		c-0.0381,0.0234-0.0771,0.0566-0.1167,0.0986c-0.0068,0.0029-0.0142,0.0078-0.021,0.0137l-0.1133,0.0908l-0.0181,0.0176
		c-0.0317,0.0176-0.062,0.042-0.0908,0.0742c-0.0063,0.002-0.0127,0.0059-0.019,0.0117l-0.0225,0.0117l-0.0303,0.0596l0.021,0.0254
		c0.3271,0.3906,0.7471,0.5869,1.2549,0.5869C19.0991,39.4043,19.2505,39.3887,19.4092,39.3564z"/>
	<path class="st1" d="M20.915,39.2656c0.1558,0.0957,0.311,0.1445,0.4653,0.1445c0.1719,0,0.3428-0.0605,0.5112-0.1797v0.1201
		h0.5762v-2.2324h-0.5762v1.3545l-0.0288,0.1016l-0.0024,0.0273c-0.0654,0.1279-0.1729,0.21-0.3184,0.251
		c-0.0029,0-0.0059,0-0.0088,0c-0.1196,0-0.2168-0.0527-0.2974-0.1611c-0.0132-0.0381-0.0244-0.083-0.0332-0.1348
		c0.0005-0.0127-0.0034-0.0244-0.0107-0.0361c-0.0015-0.0039-0.0029-0.0088-0.0054-0.0137v-1.3887h-0.5684v1.5674
		c-0.0059,0.0547,0,0.1113,0.0161,0.1611l0.0103,0.0645C20.6919,39.0449,20.7817,39.1631,20.915,39.2656z"/>
	<path class="st1" d="M24.4072,37.2109c-0.2432-0.1543-0.5215-0.1787-0.8286-0.0654c-0.3379,0.1396-0.5503,0.4121-0.6318,0.8125
		c-0.1079,0.7676,0.1777,1.251,0.855,1.4395c0.0405,0.0049,0.0801,0.0078,0.1196,0.0078c0.1719,0,0.3345-0.0527,0.4863-0.1582
		c0,0.0098,0,0.0195-0.0005,0.0303v0.0732h0.584v-3.0762h-0.584V37.2109z M24.3994,38.2959
		c0.0098,0.2012-0.0308,0.3428-0.1216,0.4229c-0.0918,0.0791-0.2422,0.1035-0.4443,0.0654
		c-0.1729-0.0977-0.2803-0.2627-0.3188-0.4893c-0.0225-0.3379,0.1147-0.5527,0.4185-0.6553
		c0.1724,0.0059,0.2988,0.0537,0.3765,0.1445C24.3994,37.8887,24.4302,38.0576,24.3994,38.2959z"/>
	<path class="st1" d="M26.9229,39.3506h0.584v-3.0762h-0.584v0.9365c-0.2422-0.1543-0.5186-0.1787-0.8291-0.0654
		c-0.3374,0.1396-0.5498,0.4121-0.6313,0.8125c-0.1079,0.7676,0.1777,1.251,0.855,1.4395c0.04,0.0059,0.0801,0.0078,0.1201,0.0078
		c0.1719,0,0.335-0.0527,0.4863-0.1582c0,0.0098-0.001,0.0195-0.001,0.0303V39.3506z M26.915,38.2959
		c0.0098,0.2012-0.0303,0.3428-0.1211,0.4219c-0.0918,0.0811-0.2432,0.1035-0.4443,0.0664
		c-0.1729-0.0977-0.2803-0.2627-0.3193-0.4893c-0.0225-0.3379,0.1143-0.5527,0.4189-0.6553
		c0.1719,0.0059,0.2988,0.0537,0.376,0.1445C26.916,37.8896,26.9453,38.0586,26.915,38.2959z"/>
	<path class="st1" d="M29.04,39.4111c0.291,0,0.5664-0.1074,0.8242-0.3223l0.0391-0.0322l-0.1377-0.1582
		c-0.0049-0.0088-0.0127-0.0166-0.0215-0.0244c-0.0186-0.0303-0.0459-0.0615-0.0801-0.0928l-0.0146-0.0156l-0.0088-0.0264
		l-0.0117-0.0088c-0.0186-0.0146-0.0361-0.0342-0.0518-0.0586l-0.0332-0.0498l-0.043,0.041
		c-0.1563,0.1455-0.3457,0.1982-0.5732,0.1748c-0.2021-0.0391-0.3203-0.1602-0.3584-0.3701h1.4219v-0.2842
		c0-0.0137-0.0029-0.0264-0.0088-0.0391L29.9756,38.04v-0.002c-0.0664-0.6182-0.4219-0.9434-1.0654-0.9668
		c-0.6592,0.1025-0.9805,0.5342-0.9561,1.2891c0.0469,0.5156,0.3076,0.8555,0.7803,1.0127
		C28.8379,39.3984,28.9395,39.4111,29.04,39.4111z M28.9404,37.6006c0.2021,0.0029,0.3418,0.1006,0.4287,0.2998
		c0.0039,0.0215,0.0107,0.0449,0.0215,0.0732c0,0.0088,0,0.0186,0.001,0.0273h-0.833
		C28.5869,37.7871,28.7158,37.6563,28.9404,37.6006z"/>
	<path class="st1" d="M32.2256,37.5547l-0.0049-0.0332c-0.1494-0.3096-0.4141-0.4658-0.791-0.4658c-0.0117,0-0.0225,0-0.0342,0
		c-0.1475,0.0215-0.2891,0.0811-0.4199,0.1787v-0.124h-0.5684v2.2324h0.5684l-0.001-1.335l0.0273-0.123
		c0.0518-0.1094,0.1357-0.1885,0.252-0.2393c0.1006-0.0352,0.1865-0.0342,0.2539-0.001c0.0723,0.0371,0.1289,0.1152,0.166,0.2266
		l0.0068,0.0391v1.4326h0.5762v-1.6895C32.252,37.6211,32.2422,37.5879,32.2256,37.5547z"/>
	<path class="st1" d="M19.5322,42.0254c-0.1514-0.0967-0.3306-0.1465-0.5376-0.1465c-0.0098,0-0.0195,0-0.0288,0
		c-0.2964,0.043-0.5244,0.209-0.6772,0.4941c-0.1602,0.2871-0.1851,0.6133-0.0752,0.9678c0.0811,0.2861,0.2749,0.4922,0.5806,0.6123
		c0.2554,0.0781,0.5029,0.043,0.7383-0.1016l0.001,0.2217c-0.0083,0.0361-0.0264,0.0742-0.0552,0.1162l-0.0078,0.0186
		c-0.2788,0.1602-0.6069,0.1475-0.9746-0.043l-0.0542-0.0273l-0.0303,0.1064c-0.0161,0.0254-0.0317,0.0566-0.0459,0.0918
		l-0.0552,0.1348l-0.0752,0.1572l0.041,0.0234c0.2539,0.1455,0.5317,0.2188,0.834,0.2188c0.1675,0,0.3428-0.0225,0.5249-0.0684
		l0.165-0.0781l0.0439-0.0479c0.0547-0.042,0.1021-0.0986,0.1392-0.165l0.0347-0.0518l0.0591-0.1553l0.0239-0.1563v-2.2217h-0.5684
		V42.0254z M19.1621,43.4336c-0.2524-0.0107-0.3901-0.1475-0.4209-0.417c-0.0239-0.1875,0.0308-0.3555,0.167-0.5137l0.1514-0.0557
		h0.02c0.0068,0,0.0215,0.001,0.0347-0.0068c0.2725,0.0088,0.4028,0.1602,0.4102,0.4756
		C19.5425,43.2344,19.4248,43.3984,19.1621,43.4336z"/>
	<path class="st1" d="M21.9541,43.2725l-0.0288,0.1016l-0.0024,0.0273c-0.0654,0.1279-0.1729,0.21-0.3184,0.251
		c-0.0029,0-0.0059,0-0.0088,0c-0.1196,0-0.2168-0.0527-0.2974-0.1611c-0.0132-0.0381-0.0244-0.083-0.0332-0.1348
		c0.0005-0.0127-0.0034-0.0244-0.0107-0.0361c-0.0015-0.0039-0.0029-0.0088-0.0054-0.0137V41.918h-0.5684v1.5674
		c-0.0059,0.0547,0,0.1113,0.0161,0.1611l0.0103,0.0645c0.0474,0.1338,0.1372,0.252,0.2705,0.3545
		c0.1558,0.0957,0.311,0.1445,0.4653,0.1445c0.1719,0,0.3428-0.0605,0.5112-0.1797v0.1201h0.5762V41.918h-0.5762V43.2725z"/>
	<path class="st1" d="M24.9521,42.3545l-0.0049-0.0332c-0.1499-0.3096-0.4141-0.4658-0.791-0.4658c-0.0112,0-0.0229,0-0.0347,0
		c-0.1479,0.0215-0.2886,0.0811-0.4194,0.1787v-0.124h-0.5684v2.2324h0.5684l-0.001-1.335l0.0278-0.123
		c0.0508-0.1094,0.1348-0.1885,0.2515-0.2393c0.103-0.0352,0.1875-0.0332,0.2534-0.001c0.0723,0.0361,0.1289,0.1152,0.166,0.2266
		l0.0073,0.0391v1.4326h0.5762l-0.0005-1.6895C24.979,42.4219,24.9688,42.3896,24.9521,42.3545z"/>
	<path class="st1" d="M26.7383,41.0918c-0.085-0.0273-0.1895-0.041-0.3203-0.041h-0.1123
		c-0.2471,0.0166-0.4487,0.1309-0.6001,0.3408l-0.0063,0.0117c-0.0352,0.0957-0.0488,0.2041-0.042,0.3301v0.1924h-0.3438v0.498
		h0.3438v1.7344h0.5762v-1.7344h0.3906v-0.498h-0.3906v-0.1582c0.0781-0.1738,0.2188-0.2217,0.4355-0.1582l0.0605,0.0176
		l0.0107-0.1816c0.0049-0.0244,0.0078-0.0527,0.0088-0.083l0.0078-0.0977l-0.001-0.0303l0.0234-0.1289L26.7383,41.0918z"/>
	<path class="st1" d="M27.2832,41.082l-0.0137,0.002c-0.2139,0.0703-0.2959,0.2266-0.2314,0.4619
		c0.0527,0.0986,0.1416,0.1973,0.291,0.1973c0.0625,0,0.1357-0.0176,0.2197-0.0586l0.0137-0.0098
		c0.084-0.083,0.123-0.1934,0.1162-0.3262l-0.0029-0.0146C27.6162,41.1611,27.4756,41.0752,27.2832,41.082z"/>
	<rect x="27.0557" y="41.9258" class="st1" width="0.5762" height="2.2324"/>
	<path class="st1" d="M28.8037,42.0654c0-0.0039,0-0.0078,0-0.0117V41.918h-0.5762v2.2246h0.5762v-1.2148l0.0293-0.1699
		c0.1055-0.1943,0.2734-0.2891,0.5098-0.2891c0.0205,0,0.042,0.001,0.0645,0.002l0.0527,0.0039v-0.6035h-0.1514
		C29.1172,41.8711,28.9482,41.9365,28.8037,42.0654z"/>
	<path class="st1" d="M31.7881,42.8398v-0.002c-0.0664-0.6182-0.4219-0.9434-1.0654-0.9668
		c-0.6592,0.1025-0.9805,0.5342-0.9561,1.2891c0.0469,0.5156,0.3076,0.8555,0.7803,1.0127
		c0.1035,0.0254,0.2051,0.0381,0.3057,0.0381c0.291,0,0.5664-0.1074,0.8242-0.3223l0.0391-0.0322l-0.1377-0.1582
		c-0.0049-0.0088-0.0127-0.0166-0.0215-0.0244c-0.0186-0.0303-0.0459-0.0615-0.0801-0.0928l-0.0146-0.0156l-0.0088-0.0264
		l-0.0117-0.0088c-0.0186-0.0146-0.0361-0.0342-0.0518-0.0586l-0.0332-0.0498l-0.043,0.041
		c-0.1563,0.1455-0.3477,0.1973-0.5732,0.1748c-0.2021-0.0391-0.3203-0.1602-0.3584-0.3701h1.4219v-0.2842
		c0-0.0137-0.0029-0.0264-0.0088-0.0391L31.7881,42.8398z M30.3711,42.8008c0.0283-0.2139,0.1572-0.3447,0.3818-0.4004
		c0.2021,0.0029,0.3418,0.1006,0.4287,0.2998c0.0039,0.0215,0.0107,0.0449,0.0215,0.0732c0,0.0088,0,0.0186,0.001,0.0273H30.3711z"
		/>
</g>
<polyline class="st2" points="27.5823,31.9952 10.4075,31.9952 24.8914,6.7266 39.3846,31.9952 27.5823,31.9952 "/>
<path class="st3" d="M38.9246,33.5421c0.7559-0.0088,1.4571-0.4131,1.835-1.0713c0.3799-0.6563,0.3799-1.4649,0-2.1231
	L26.8416,6.2628c-0.3799-0.6602-1.081-1.0645-1.8408-1.0645c-0.7603,0-1.4605,0.4024-1.8403,1.0586L9.2464,30.3477
	c-0.3877,0.6582-0.3877,1.4668,0,2.1231c0.3779,0.6582,1.0801,1.0625,1.8369,1.0625L38.9246,33.5421 M12.3157,30.6983h25.375
	L25.0008,8.7432L12.3157,30.6983z"/>
<path class="st4" d="M24.9101,25.7159c1.042,0,1.8872,0.8457,1.8872,1.8858c0,1.042-0.8452,1.8867-1.8872,1.8867
	c-1.0401,0-1.8848-0.8447-1.8848-1.8867C23.0253,26.5616,23.87,25.7159,24.9101,25.7159"/>
<path class="st4" d="M24.641,24.7745h0.5664l2.1128-8.3613c0.0342-0.166,0.0518-0.335,0.0518-0.5039
	c0-1.3487-1.0986-2.4444-2.4517-2.4444c-1.354,0-2.4521,1.0957-2.4521,2.4444c0,0.1689,0.0181,0.3379,0.0522,0.5039L24.641,24.7745"
	/>
</svg>
