<?xml version="1.0" encoding="utf-8"?>
<!-- Generator: Adobe Illustrator 20.1.0, SVG Export Plug-In . SVG Version: 6.00 Build 0)  -->
<svg version="1.0" id="Layer_1" xmlns="http://www.w3.org/2000/svg" xmlns:xlink="http://www.w3.org/1999/xlink" x="0px" y="0px"
	 viewBox="0 0 50 50" style="enable-background:new 0 0 50 50;" xml:space="preserve">
<style type="text/css">
	.st0{fill-rule:evenodd;clip-rule:evenodd;fill:#FFFFFF;}
	.st1{fill-rule:evenodd;clip-rule:evenodd;fill:#C2242A;}
	.st2{fill:#272525;}
</style>
<polyline class="st0" points="27.5823,34.6007 10.4075,34.6007 24.8914,9.3321 39.3846,34.6007 27.5823,34.6007 "/>
<path class="st1" d="M38.9246,36.1476c0.7559-0.0088,1.4571-0.4131,1.835-1.0713c0.3799-0.6563,0.3799-1.4649,0-2.1231
	L26.8416,8.8683c-0.3799-0.6602-1.081-1.0645-1.8408-1.0645c-0.7603,0-1.4605,0.4024-1.8403,1.0586L9.2464,32.9532
	c-0.3877,0.6582-0.3877,1.4668,0,2.1231c0.3779,0.6582,1.0801,1.0625,1.8369,1.0625L38.9246,36.1476 M12.3157,33.3038h25.375
	L25.0008,11.3487L12.3157,33.3038z"/>
<polygon class="st2" points="18.2852,30.8408 19.2227,30.8408 19.2227,28.7725 21.2412,28.7725 21.2412,27.9111 19.2227,27.9111 
	19.2227,26.7412 21.4316,26.7412 21.4316,25.8911 18.2852,25.8911 "/>
<path class="st2" d="M25.0044,27.9717c-0.3491-0.5557-0.8789-0.8379-1.5845-0.8379c-0.0391,0-0.0791,0.001-0.1191,0.0029
	c-1.0425,0.2334-1.5425,0.9512-1.4863,2.1338c0.0303,0.5811,0.2983,1.0508,0.7969,1.3984c0.2676,0.1748,0.5654,0.2627,0.8896,0.2627
	c0.1631,0,0.333-0.0225,0.5088-0.0674c0.6069-0.1602,0.9907-0.5693,1.1401-1.2148c0.144-0.5371,0.0962-1.0996-0.1416-1.6709
	L25.0044,27.9717z M24.3281,29.3125c-0.0542,0.4736-0.3218,0.7246-0.8086,0.7686c-0.4834-0.0488-0.751-0.3369-0.8184-0.8809
	c-0.061-0.6719,0.1855-1.0684,0.7544-1.2139c0.3223,0.0234,0.5601,0.1289,0.707,0.3115
	C24.3389,28.5176,24.3945,28.8574,24.3281,29.3125z"/>
<path class="st2" d="M26.9922,27.5449c-0.002-0.0273-0.001-0.0586,0-0.0918v-0.1904h-0.874v3.5527h0.874v-1.9463l0.0488-0.2822
	c0.1934-0.3584,0.5059-0.5137,0.9648-0.4883l0.0527,0.0039v-0.916h-0.2139C27.5176,27.1865,27.2314,27.3066,26.9922,27.5449z"/>
<path class="st2" d="M31.0313,25.8911v1.5503c-0.3965-0.2764-0.8564-0.3232-1.3662-0.1357
	c-0.5381,0.2236-0.877,0.6582-1.0078,1.2949c-0.1719,1.2285,0.2842,2.0039,1.3633,2.3047c0.0635,0.0088,0.127,0.0137,0.1895,0.0137
	c0.29,0,0.5654-0.0967,0.8213-0.2881c0.002,0.0322,0.002,0.0684,0,0.1094v0.0889h0.8867v-4.938h-0.8868V25.8911z M30.8105,29.8555
	c-0.1572,0.1387-0.4121,0.1768-0.7529,0.1143c-0.2939-0.165-0.4746-0.4414-0.5391-0.8213c-0.0381-0.5703,0.1934-0.9297,0.707-1.1006
	c0.292,0.0088,0.5078,0.0918,0.6396,0.2471c0.1523,0.1777,0.2041,0.46,0.1533,0.8486
	C31.0352,29.4805,30.9658,29.7197,30.8105,29.8555z"/>
</svg>
