<?xml version="1.0" encoding="utf-8"?>
<!-- Generator: Adobe Illustrator 20.1.0, SVG Export Plug-In . SVG Version: 6.00 Build 0)  -->
<svg version="1.0" id="Layer_1" xmlns="http://www.w3.org/2000/svg" xmlns:xlink="http://www.w3.org/1999/xlink" x="0px" y="0px"
	 viewBox="0 0 50 50" style="enable-background:new 0 0 50 50;" xml:space="preserve">
<style type="text/css">
	.st0{fill-rule:evenodd;clip-rule:evenodd;fill:#FFFFFF;}
	.st1{fill-rule:evenodd;clip-rule:evenodd;fill:#C2242A;}
	.st2{fill:#272525;}
</style>
<polyline class="st0" points="27.5823,34.6007 10.4075,34.6007 24.8914,9.3321 39.3846,34.6007 27.5823,34.6007 "/>
<path class="st1" d="M38.9246,36.1476c0.7559-0.0088,1.4571-0.4131,1.835-1.0713c0.3799-0.6563,0.3799-1.4649,0-2.1231
	L26.8416,8.8683c-0.3799-0.6602-1.081-1.0645-1.8408-1.0645c-0.7603,0-1.4605,0.4024-1.8403,1.0586L9.2464,32.9532
	c-0.3877,0.6582-0.3877,1.4668,0,2.1231c0.3779,0.6582,1.0801,1.0625,1.8369,1.0625L38.9246,36.1476 M12.3157,33.3038h25.375
	L25.0008,11.3487L12.3157,33.3038z"/>
<path class="st2" d="M18.8369,27.0557l0.0049-0.0098l0.0225-0.0107l0.0254-0.0391c0.0098-0.0068,0.0186-0.0146,0.0264-0.0264
	c0.0103-0.0068,0.0195-0.0156,0.0273-0.0283l0.0688-0.0459c0.6147-0.4531,1.2246-0.418,1.8618,0.1084l0.1104,0.1719l0.0239,0.0195
	c0.0029,0.0059,0.0068,0.0117,0.0117,0.0166c0.0103,0.0342,0.0273,0.0723,0.0522,0.1143l0.0176,0.0303l0.0342-0.0068
	c0.0444-0.0078,0.0928-0.0313,0.1436-0.0693l0.1631-0.0674l0.0088-0.0166l0.0679-0.0293l0.0254-0.0137l0.0278-0.0254l0.0283-0.0088
	c0.0151-0.0049,0.0288-0.0156,0.0405-0.0303c0.0381-0.0127,0.0786-0.0342,0.1143-0.0605l0.1387-0.0576l-0.0239-0.0479
	c-0.4204-0.8418-1.1665-1.2383-2.2139-1.1831c-0.0557,0.0122-0.1274,0.0205-0.2197,0.0244L19.38,25.7779h-0.0293l-0.0435,0.0117
	l-0.127,0.0137l-0.0132,0.0034c-1.2563,0.498-1.7749,1.5625-1.542,3.1611c0.0498,0.5205,0.2764,0.9912,0.6748,1.4023
	c0.4204,0.4131,0.9473,0.6211,1.5713,0.6211c0.1494,0,0.3047-0.0117,0.4658-0.0361c0.1157-0.0195,0.2217-0.0596,0.3154-0.1172
	l0.0425-0.0098l0.0142-0.0059c0.1187-0.0693,0.2256-0.165,0.3184-0.2842c0.0034,0.0732,0.0034,0.1563,0,0.251l-0.002,0.0518h0.8506
	V27.999h-2.2324v0.8496h1.3901c0.0801,0.5918-0.1401,0.9795-0.6724,1.1846c-0.5146,0.1924-0.9844,0.1016-1.4351-0.2822
	c-0.0718-0.0625-0.1362-0.1475-0.1914-0.2529l-0.0083-0.0146l-0.022-0.0107c-0.2612-0.6943-0.2593-1.4473,0.0044-2.2363
	C18.7471,27.1934,18.7896,27.1328,18.8369,27.0557z"/>
<path class="st2" d="M25.6084,30.0176v-1.6641c0-0.0771-0.0083-0.1738-0.0264-0.29c-0.0288-0.1357-0.0962-0.2705-0.1943-0.3926
	l-0.0381-0.0762l-0.0093-0.0127c-0.3188-0.3223-0.749-0.4561-1.2759-0.3945l-0.2725,0.0498
	c-0.0742,0.0029-0.1523,0.0215-0.2271,0.0527l-0.0952,0.0234c-0.0415,0.0059-0.0874,0.0195-0.1294,0.04L23.27,27.3672
	c-0.0601,0.0205-0.127,0.0488-0.1987,0.0859c-0.0098,0.001-0.021,0.0049-0.0322,0.0127h-0.04l-0.0322,0.0322l-0.1338,0.0498
	l0.0112,0.0439c0.0156,0.0625,0.0459,0.126,0.0913,0.1875c0.0103,0.0381,0.0278,0.0762,0.0493,0.1074l0.0278,0.083l0.0127,0.0254
	l0.0264,0.0303l0.0938,0.2275l0.0444-0.0166c0.7148-0.2783,1.1895-0.333,1.4126-0.1631c0.1147,0.0879,0.1646,0.2441,0.1484,0.4639
	l-0.2715,0.0342h-0.0381L24.396,28.583h-0.0815l-0.0474,0.0137c-0.0195,0.001-0.04,0.0049-0.062,0.0117c-0.002,0-0.0034,0-0.0054,0
	c-0.5273,0-0.9194,0.125-1.1655,0.3721c-0.2144,0.2148-0.3218,0.5254-0.3174,0.9326c0.0991,0.4482,0.3872,0.7598,0.8579,0.9248
	c0.4624,0.1602,0.9141,0.0908,1.3394-0.2119c0.1504,0.1641,0.3501,0.2783,0.5942,0.3408l0.0337,0.0078l0.02-0.0283
	c0.0293-0.0439,0.0625-0.1055,0.1016-0.1885c0.0469-0.0449,0.0854-0.1055,0.1157-0.1797c0.0288-0.0313,0.0542-0.0693,0.0747-0.1133
	l0.019-0.0195l0.019-0.0391c0.0103-0.0088,0.019-0.0186,0.0259-0.0313l0.0649-0.1006l-0.0713-0.0146
	C25.7788,30.2324,25.6797,30.1523,25.6084,30.0176z M24.7397,29.8779c-0.0186,0.0254-0.0352,0.0576-0.0493,0.0967
	c-0.3062,0.2646-0.624,0.2891-0.9639,0.083c-0.103-0.0977-0.1548-0.1973-0.1548-0.2949c0.0005-0.1064,0.0625-0.2188,0.1836-0.335
	c0.0425-0.0117,0.0898-0.0313,0.1411-0.0596l0.0366-0.001l0.1909-0.0498h0.0381c0.0171,0,0.0342-0.0039,0.0508-0.0117l0.0811-0.0127
	c0.0361,0,0.0776-0.002,0.1221-0.0127h0.0762c0.0176,0,0.0352-0.0039,0.0522-0.0137h0.1899l0.0015,0.5596l0.0088,0.0371
	L24.7397,29.8779z"/>
<path class="st2" d="M28.7832,30.292c0.0039-0.0449-0.001-0.0928-0.0137-0.1357v-0.0762l-0.0313-0.1016l-0.0488,0.0176
	c-0.3164,0.1152-0.5625,0.0938-0.748-0.0684c-0.0098-0.0664-0.0127-0.1504-0.0098-0.2539v-1.6514h0.9141v-0.7598h-0.9141v-1.271
	c0-0.0366-0.0137-0.0698-0.0391-0.0967L27.8691,25.87l-0.2109,0.085c-0.0117,0.0005-0.0254,0.0044-0.0391,0.0146
	c-0.0088,0.0024-0.0195,0.0078-0.0293,0.0166l-0.0879,0.0215l-0.0439,0.0254c-0.0117,0.002-0.0234,0.0059-0.0352,0.0117
	c-0.0137,0.002-0.0264,0.0068-0.0391,0.0137c-0.0137,0.002-0.0273,0.0068-0.04,0.0137l-0.0566,0.0117l-0.0479,0.0273l-0.1035,0.0273
	l-0.0781,0.0391v1.085h-0.6094v0.7598h0.6084l0.001,1.8398c-0.0039,0.0752,0,0.1719,0.0127,0.2822l0.001,0.0469
	c0.0098,0.0479,0.0273,0.1025,0.0518,0.1582l0.0283,0.083l0.0166,0.0313c0.1904,0.2813,0.5049,0.4229,0.9365,0.4229
	c0.207,0,0.4424-0.0322,0.7031-0.0977l0.043-0.0107l-0.043-0.3574C28.8057,30.3838,28.7979,30.3408,28.7832,30.292z"/>
<path class="st2" d="M32.54,28.9629c0-0.0186-0.0049-0.0361-0.0137-0.0527l-0.0117-0.1787v-0.002
	c-0.1064-0.9873-0.6738-1.5059-1.6953-1.543c-1.0527,0.1631-1.5664,0.8555-1.5273,2.0605c0.0742,0.8232,0.4912,1.3682,1.2441,1.6182
	c0.165,0.041,0.3281,0.0615,0.4893,0.0615c0.4648,0,0.9063-0.1729,1.3193-0.5156l0.0391-0.0322l-0.2051-0.2354
	c-0.0068-0.0137-0.0176-0.0254-0.0322-0.0352c-0.0303-0.0498-0.0742-0.1016-0.1279-0.1514l-0.0303-0.0303l-0.0137-0.041
	l-0.0117-0.0088c-0.0332-0.0264-0.0635-0.0605-0.0908-0.1035l-0.0322-0.0498l-0.0439,0.041c-0.2617,0.2432-0.582,0.3389-0.959,0.292
	c-0.3555-0.0693-0.5566-0.2861-0.6133-0.6631H32.54V28.9629z M30.208,28.6982c0.0381-0.3818,0.2568-0.6162,0.6563-0.7129
	c0.3418,0.0039,0.5791,0.1699,0.7266,0.5088c0.0059,0.0361,0.0176,0.0771,0.0361,0.1211c-0.002,0.0283,0.001,0.0557,0.0078,0.083
	H30.208z"/>
</svg>
