<?xml version="1.0" encoding="utf-8"?>
<!-- Generator: Adobe Illustrator 20.1.0, SVG Export Plug-In . SVG Version: 6.00 Build 0)  -->
<svg version="1.0" id="Layer_1" xmlns="http://www.w3.org/2000/svg" xmlns:xlink="http://www.w3.org/1999/xlink" x="0px" y="0px"
	 viewBox="0 0 50 50" style="enable-background:new 0 0 50 50;" xml:space="preserve">
<style type="text/css">
	.st0{fill:#CA252B;}
	.st1{fill:#FFFFFF;}
	.st2{fill:#262425;}
</style>
<path class="st0" d="M25.1626,39.3575c7.8164,0,14.1592-6.336,14.1592-14.1534c0-7.8173-6.3428-14.1591-14.1592-14.1591
	c-7.8184,0-14.1523,6.3418-14.1523,14.1591C11.0103,33.0215,17.3442,39.3575,25.1626,39.3575"/>
<path class="st1" d="M25.1626,36.5323c6.2559,0,11.3262-5.0791,11.3262-11.3282c0-6.2558-5.0703-11.3261-11.3262-11.3261
	c-6.2568,0-11.3262,5.0703-11.3262,11.3261C13.8364,31.4532,18.9058,36.5323,25.1626,36.5323"/>
<polyline class="st2" points="22.9185,35.5508 25.1841,32.8575 27.4478,35.5508 22.9185,35.5508 "/>
<polyline class="st2" points="27.4282,14.791 25.1704,17.4883 22.9126,14.791 27.4282,14.791 "/>
</svg>
