<?xml version="1.0" encoding="utf-8"?>
<!-- Generator: Adobe Illustrator 20.1.0, SVG Export Plug-In . SVG Version: 6.00 Build 0)  -->
<svg version="1.0" id="Layer_1" xmlns="http://www.w3.org/2000/svg" xmlns:xlink="http://www.w3.org/1999/xlink" x="0px" y="0px"
	 viewBox="0 0 50 50" style="enable-background:new 0 0 50 50;" xml:space="preserve">
<style type="text/css">
	.st0{fill-rule:evenodd;clip-rule:evenodd;fill:#FFFFFF;}
	.st1{fill-rule:evenodd;clip-rule:evenodd;fill:#C2242A;}
	.st2{fill:#1F1D1E;}
</style>
<polyline class="st0" points="27.5823,34.6006 10.4075,34.6006 24.8914,9.332 39.3846,34.6006 27.5823,34.6006 "/>
<path class="st1" d="M38.9246,36.1475c0.7559-0.0088,1.4571-0.4131,1.835-1.0713c0.3799-0.6563,0.3799-1.4649,0-2.1231
	L26.8416,8.8682c-0.3799-0.6602-1.081-1.0645-1.8408-1.0645c-0.7603,0-1.4605,0.4024-1.8403,1.0586L9.2464,32.9531
	c-0.3877,0.6582-0.3877,1.4668,0,2.1231c0.3779,0.6582,1.0801,1.0625,1.8369,1.0625L38.9246,36.1475 M12.3157,33.3037h25.375
	L25.0008,11.3486L12.3157,33.3037z"/>
<path class="st2" d="M32.3645,29.1612h-0.5581V25.96h-0.835v-0.4229c0-0.0762,0.0591-0.1348,0.1328-0.1348
	c0.0029,0,0.0064,0,0.0093,0v-0.2783h-1.8071v0.2783c0.0761,0,0.1347,0.0586,0.1347,0.1348c0,0.0029,0,0.0068,0,0.0089
	l0.0093-0.0089V25.96h-3.6143v-0.2793h-0.0087c0-0.3047-0.2403-0.5527-0.5401-0.5566h-0.6919c-0.0029,0-0.0073,0-0.0102,0
	c-0.3028,0-0.5489,0.249-0.5489,0.5566V25.96h-2.7778v-0.9804h-2.9131v1.2588h0.2798h0.5571
	c0.0708,0.0048,0.126,0.0625,0.126,0.1357c0,0.0019,0,0.0039,0,0.0068l0.0088-0.0068v1.3926h-0.0088
	c0,0.0713-0.0552,0.1299-0.126,0.1347v0.0098h-1.5288V30.42h0.463c-0.0229,0.1079-0.0362,0.2194-0.0362,0.334
	c0,0.8838,0.7139,1.6014,1.5942,1.6014c0.877,0,1.5899-0.7177,1.5899-1.6014c0-0.1147-0.0132-0.2261-0.0361-0.334h0.3661
	c-0.0229,0.1079-0.0361,0.2194-0.0361,0.334c0,0.8838,0.7119,1.6014,1.5918,1.6014c0.8794,0,1.5913-0.7177,1.5913-1.6014
	c0-0.1147-0.0132-0.2261-0.0361-0.334h0.336c-0.0229,0.1079-0.0362,0.2194-0.0362,0.334c0,0.8838,0.7143,1.6014,1.5923,1.6014
	c0.8779,0,1.5898-0.7177,1.5898-1.6014c0-0.1147-0.0131-0.2261-0.036-0.334h1.1095c-0.5184,0.0187-0.9372,0.4396-0.9372,0.9648
	c0,0.5352,0.436,0.9706,0.9707,0.9706c0.5371,0,0.9711-0.4355,0.9711-0.9706c0-0.5252-0.4171-0.9462-0.9376-0.9648h2.03
	c-0.5187,0.0187-0.9367,0.4396-0.9367,0.9648c0,0.5352,0.4351,0.9706,0.9702,0.9706c0.5381,0,0.9732-0.4355,0.9732-0.9706
	c0-0.5252-0.418-0.9462-0.9395-0.9648h0.9395V29.1612z"/>
<path class="st2" d="M24.2585,23.1719c0.2605,0,0.507-0.0536,0.7382-0.139c0.3687,0.3361,0.8536,0.5463,1.3907,0.5463
	c0.1682,0,0.3295-0.0255,0.4861-0.0634c0.2887,0.2943,0.6891,0.4774,1.1326,0.4774c0.3642,0,0.6956-0.1277,0.9637-0.3345
	c0.0802-0.0658,0.1806-0.1,0.2926-0.1c0.252,0,0.458,0.206,0.458,0.458v0.9629h0.979v-0.2793c0-0.7925-0.541-3.3099-2.371-3.9337
	c-0.295-0.7917-1.0497-1.3594-1.941-1.3594c-0.2085,0-0.4058,0.0402-0.5957,0.0977c-0.3902-0.3987-0.9323-0.6475-1.5332-0.6475
	c-1.1841,0-2.147,0.9658-2.147,2.1553C22.1115,22.2051,23.0744,23.1719,24.2585,23.1719z"/>
</svg>
