<?xml version="1.0" encoding="utf-8"?>
<!-- Generator: Adobe Illustrator 20.1.0, SVG Export Plug-In . SVG Version: 6.00 Build 0)  -->
<svg version="1.0" id="Layer_1" xmlns="http://www.w3.org/2000/svg" xmlns:xlink="http://www.w3.org/1999/xlink" x="0px" y="0px"
	 viewBox="0 0 50 50" style="enable-background:new 0 0 50 50;" xml:space="preserve">
<style type="text/css">
	.st0{fill:#4679BB;}
	.st1{fill:#FFFFFF;}
</style>
<path class="st0" d="M24.999,9.9273c7.7364,0,14.0352,6.2949,14.0352,14.0332S32.7354,37.9947,24.999,37.9947
	c-7.7373,0-14.0332-6.2959-14.0332-14.0342S17.2617,9.9273,24.999,9.9273V9.7867c-7.8164,0-14.1738,6.3584-14.1738,14.1738
	c0,7.8174,6.3574,14.1748,14.1738,14.1748c7.8145,0,14.1758-6.3574,14.1758-14.1748c0-7.8154-6.3613-14.1738-14.1758-14.1738V9.9273
	"/>
<path class="st0" d="M24.999,10.2838c7.5332,0,13.6465,6.1142,13.6465,13.6465c0,7.5332-6.1133,13.6474-13.6465,13.6474
	s-13.6474-6.1142-13.6474-13.6474C11.3516,16.398,17.4658,10.2838,24.999,10.2838"/>
<polyline class="st1" points="24.292,29.5836 20.5274,25.8209 36.5498,25.8209 36.5498,22.0562 20.5274,22.0562 24.292,18.2935 
	18.6465,18.2935 12.9912,23.939 18.6465,29.5836 24.292,29.5836 "/>
</svg>
