<?xml version="1.0" encoding="utf-8"?>
<!-- Generator: Adobe Illustrator 20.1.0, SVG Export Plug-In . SVG Version: 6.00 Build 0)  -->
<svg version="1.0" id="Layer_1" xmlns="http://www.w3.org/2000/svg" xmlns:xlink="http://www.w3.org/1999/xlink" x="0px" y="0px"
	 viewBox="0 0 50 50" style="enable-background:new 0 0 50 50;" xml:space="preserve">
<style type="text/css">
	.st0{fill:#CA252B;}
	.st1{fill:#FFFFFF;}
</style>
<path class="st0" d="M25.0005,9.9611c7.7461,0,14.0488,6.3017,14.0488,14.0478s-6.3027,14.0479-14.0488,14.0479
	S10.9537,31.7551,10.9537,24.009S17.2544,9.9611,25.0005,9.9611V9.8489c-7.8076,0-14.1602,6.3525-14.1602,14.1601
	c0,7.8086,6.3526,14.1602,14.1602,14.1602c7.8096,0,14.1601-6.3516,14.1601-14.1602c0-7.8076-6.3505-14.1601-14.1601-14.1601V9.9611
	"/>
<path class="st0" d="M25.025,10.4495c7.4736,0,13.5371,6.0644,13.5371,13.5341c0,7.4746-6.0635,13.5381-13.5371,13.5381
	c-7.4727,0-13.5361-6.0635-13.5361-13.5381C11.4889,16.5139,17.5523,10.4495,25.025,10.4495"/>
<path class="st1" d="M13.734,26.8127c-0.417,0-0.7539-0.3369-0.7539-0.7529v-4.1357c0-0.4121,0.3369-0.7471,0.7539-0.7471h22.5713
	c0.4101,0.0039,0.7383,0.3379,0.7383,0.7471v4.1357c0,0.4141-0.3282,0.751-0.7383,0.7529H13.734"/>
</svg>
