<?xml version="1.0" encoding="utf-8"?>
<!-- Generator: Adobe Illustrator 20.1.0, SVG Export Plug-In . SVG Version: 6.00 Build 0)  -->
<svg version="1.0" id="Layer_1" xmlns="http://www.w3.org/2000/svg" xmlns:xlink="http://www.w3.org/1999/xlink" x="0px" y="0px"
	 viewBox="0 0 50 50" style="enable-background:new 0 0 50 50;" xml:space="preserve">
<style type="text/css">
	.st0{fill:#CA252B;}
	.st1{fill:#FFFFFF;}
	.st2{fill:#262425;}
</style>
<path class="st0" d="M24.9991,10.8448c7.8144,0,14.1562,6.3408,14.1562,14.1552c0,7.8125-6.3418,14.1553-14.1562,14.1553
	c-7.8145,0-14.1543-6.3428-14.1543-14.1553C10.8448,17.1856,17.1845,10.8448,24.9991,10.8448"/>
<path class="st1" d="M24.9991,13.6446c6.2509,0,11.3242,5.0742,11.3242,11.3252c0,6.25-5.0733,11.3242-11.3242,11.3242
	c-6.252,0-11.3243-5.0742-11.3243-11.3242C13.6748,18.7188,18.747,13.6446,24.9991,13.6446"/>
<path class="st2" d="M23.3584,20.039c-1.5605,0-2.83,1.2676-2.83,2.8311v11.5576h2.83V23.8125c0-0.5214,0.4258-0.9423,0.9454-0.9423
	h8.7734l1.8408-1.4209l-1.8408-1.4102L23.3584,20.039"/>
<polyline class="st0" points="15.7666,34.1748 17.58,35.6954 34.2519,15.8243 32.4463,14.3047 15.7666,34.1748 "/>
</svg>
