<?xml version="1.0" encoding="utf-8"?>
<!-- Generator: Adobe Illustrator 20.1.0, SVG Export Plug-In . SVG Version: 6.00 Build 0)  -->
<svg version="1.0" id="Layer_1" xmlns="http://www.w3.org/2000/svg" xmlns:xlink="http://www.w3.org/1999/xlink" x="0px" y="0px"
	 viewBox="0 0 50 50" style="enable-background:new 0 0 50 50;" xml:space="preserve">
<style type="text/css">
	.st0{fill:#FFFFFF;stroke:#272525;stroke-width:0.53;}
	.st1{fill:#272525;}
	.st2{fill:#CA252B;}
	.st3{fill:#FFFFFF;}
	.st4{fill:#262425;}
</style>
<path class="st0" d="M35.2188,39.1017H14.7813c-0.55,0-1,0.45-1,1v4.625c0,0.55,0.45,1,1,1h20.4375c0.55,0,1-0.45,1-1v-4.625
	C36.2188,39.5517,35.7687,39.1017,35.2188,39.1017z"/>
<polygon class="st1" points="19.2314,42.6396 20.4736,42.6396 20.4736,42.0791 19.2314,42.0791 19.2314,41.3975 20.5908,41.3975 
	20.5908,40.8291 18.6162,40.8291 18.6162,43.9209 20.6768,43.9209 20.6768,43.3604 19.2363,43.3604 "/>
<path class="st1" d="M22.978,43.7139l-0.042-0.0732c-0.0146-0.0225-0.0337-0.0469-0.0571-0.0732
	c-0.0029-0.0098-0.0088-0.0186-0.0166-0.0264l-0.0244-0.0361c-0.0039-0.0107-0.0103-0.0215-0.019-0.0303
	c-0.0132-0.0273-0.0317-0.0586-0.0562-0.0947l-0.1377-0.208l-0.0303-0.0361c-0.0151-0.0381-0.0405-0.0762-0.0752-0.1152
	c-0.0029-0.0088-0.0083-0.0176-0.0151-0.0244l-0.0273-0.0479l-0.0161-0.0195c-0.0103-0.0234-0.0244-0.0449-0.0405-0.0615
	l-0.0278-0.0498l-0.0254-0.0293c-0.0049-0.0088-0.0107-0.0186-0.019-0.0264l-0.0083-0.0186c0.0264-0.0313,0.0542-0.0723,0.084-0.123
	l0.0171-0.0352c0.0107-0.0088,0.0176-0.0205,0.022-0.0273l0.0498-0.0703l0.0117-0.0283c0.021-0.0234,0.041-0.0508,0.0615-0.0859
	l0.0527-0.0898l0.0254-0.0254l0.0522-0.0918l0.0669-0.0928l0.0234-0.0439c0.0317-0.0352,0.0601-0.0801,0.0801-0.127l0.0625-0.0781
	l0.0601-0.1357h-0.6372l-0.0151,0.0166c-0.0269,0.0303-0.0488,0.0654-0.0684,0.1084l-0.228,0.3398l-0.0044,0.0098
	c-0.0181,0.0195-0.0356,0.043-0.0522,0.0703l-0.1958-0.2871c-0.0088-0.0225-0.0229-0.0479-0.0503-0.0869l-0.1084-0.1709h-0.647
	l0.0249,0.0674c0.0151,0.041,0.043,0.084,0.082,0.127c0.0151,0.0371,0.04,0.0742,0.0742,0.1123
	c0.0024,0.0068,0.0059,0.0137,0.0107,0.0195l0.0381,0.0664l0.0254,0.0293c0.0039,0.0078,0.0088,0.0146,0.0146,0.0215l0.0806,0.1338
	c0.0151,0.0234,0.0352,0.0488,0.0601,0.0762l0.0625,0.0928l0.0132,0.0332l0.0581,0.0869l0.0254,0.0264l0.0234,0.0449l0.0654,0.0928
	l0.0112,0.0273c-0.0122,0.0166-0.0229,0.0371-0.0317,0.0586c-0.0161,0.0176-0.0317,0.0381-0.0454,0.0625l-0.3843,0.5859
	l-0.0156,0.0156l-0.0234,0.0469l-0.0298,0.0313l-0.1084,0.1768l-0.0513,0.0703l-0.0596,0.1191h0.6509l0.0142-0.0273
	c0.0137-0.0283,0.0352-0.0615,0.0669-0.1045l0.0483-0.083c0.0122-0.0098,0.019-0.0215,0.022-0.0264l0.0117-0.0176
	c0.0176-0.0205,0.0337-0.0449,0.0474-0.0742l0.0117-0.0059l0.0278-0.0439L21.8359,43.5l0.021-0.0215
	c0.0161-0.0225,0.0327-0.0498,0.0513-0.0859l0.0195-0.0098l0.0063-0.0195l0.0215-0.0371c0.0176-0.0205,0.0337-0.0449,0.0474-0.0742
	l0.0034-0.002l0.0811,0.1328l0.022,0.0313l0.0098,0.0098c0.0044,0.0078,0.0098,0.0137,0.0166,0.0195
	c0.0107,0.0215,0.0254,0.0449,0.0449,0.0723l0.082,0.1299c0.0142,0.0166,0.0308,0.041,0.0576,0.0811l0.0181,0.0186l0.0171,0.0322
	l0.0269,0.0332l0.0127,0.0322l0.0537,0.0703h0.6343l-0.0244-0.0664C23.0435,43.8037,23.0161,43.7598,22.978,43.7139z"/>
<path class="st1" d="M24.8936,43.1621l-0.1548-0.0898l-0.0229,0.0527c-0.0737,0.1689-0.2046,0.2666-0.3955,0.2979
	c-0.1426,0.0156-0.2573-0.0439-0.3516-0.1641c-0.1709-0.2803-0.1763-0.5762-0.0176-0.9043c0.0298-0.0283,0.064-0.0645,0.1006-0.1084
	l0.0693-0.0381l0.0234-0.0078l0.0269-0.0156c0.2393-0.04,0.417,0.0576,0.5381,0.2949l0.0234,0.0469l0.1641-0.0928
	c0.0229-0.0049,0.0454-0.0166,0.0684-0.0332l0.0454-0.0156l0.0127-0.0068c0.021-0.0088,0.043-0.0215,0.0674-0.041l0.1313-0.0469
	l-0.0249-0.0508c-0.1885-0.377-0.5186-0.5732-0.9854-0.582c-0.355,0.0205-0.6211,0.1865-0.7905,0.4941
	c-0.1411,0.2461-0.1934,0.5322-0.1548,0.8516c0.0669,0.5117,0.3481,0.8232,0.8394,0.9258c0.0635,0.0088,0.125,0.0137,0.1846,0.0137
	c0.3853,0,0.689-0.1943,0.9053-0.5781l0.0269-0.0479l-0.2651-0.1299C24.9404,43.1768,24.9165,43.168,24.8936,43.1621z"/>
<path class="st1" d="M27.4521,42.6025v-0.002c-0.0664-0.6182-0.4219-0.9434-1.0654-0.9668
	c-0.6587,0.1025-0.9805,0.5342-0.9561,1.2891c0.0464,0.5156,0.3076,0.8555,0.7803,1.0127c0.1035,0.0254,0.2051,0.0381,0.3057,0.0381
	c0.291,0,0.5664-0.1074,0.8242-0.3223l0.0391-0.0322l-0.1377-0.1582c-0.0049-0.0088-0.0127-0.0166-0.0215-0.0244
	c-0.0186-0.0303-0.0459-0.0615-0.0801-0.0928l-0.0146-0.0156l-0.0088-0.0264l-0.0117-0.0088
	c-0.0186-0.0146-0.0361-0.0342-0.0518-0.0586l-0.0332-0.0498l-0.043,0.041c-0.1563,0.1455-0.3457,0.1982-0.5732,0.1748
	c-0.2021-0.0391-0.3203-0.1602-0.3584-0.3701h1.4219v-0.2842c0-0.0137-0.0029-0.0264-0.0088-0.0391L27.4521,42.6025z
	 M26.0352,42.5635c0.0283-0.2129,0.1572-0.3447,0.3818-0.4004c0.2021,0.0029,0.3418,0.1006,0.4287,0.2998
	c0.0039,0.0215,0.0107,0.0449,0.0215,0.0732c0,0.0088,0,0.0186,0.001,0.0273H26.0352z"/>
<path class="st1" d="M29.1309,41.6504c-0.0518-0.0098-0.1123-0.0156-0.1807-0.0166h-0.1416
	c-0.1318,0.0215-0.2598,0.0732-0.3799,0.1543v-0.1152h-0.5684v2.9043h0.5684v-0.7617c0.2461,0.1631,0.5293,0.1875,0.8535,0.0703
	c0.3877-0.1719,0.6025-0.498,0.6387-0.9717C29.9717,42.2871,29.708,41.8623,29.1309,41.6504z M29.0732,43.3271
	c-0.1689,0.0977-0.3408,0.083-0.5195-0.04c-0.1025-0.1289-0.1396-0.3193-0.1094-0.5664v-0.0098
	c-0.0225-0.2715,0.1035-0.4326,0.3828-0.4922c0.2822,0.0273,0.4463,0.1924,0.502,0.501
	C29.3564,42.9805,29.2715,43.1807,29.0732,43.3271z"/>
<path class="st1" d="M31.6943,43.6426c-0.001-0.0254-0.0059-0.0518-0.0146-0.082c0.002-0.0283-0.001-0.0566-0.0088-0.0801v-0.0469
	l-0.0264-0.0879l-0.0488,0.0176c-0.1846,0.0693-0.3271,0.0586-0.4355-0.0332c-0.0049-0.0381-0.0068-0.085-0.0049-0.1465v-0.9971
	h0.5625v-0.5059h-0.5625V40.918c0-0.0273-0.0098-0.0518-0.0283-0.0732l-0.0234-0.0254l-0.1416,0.0566
	c-0.0078,0.001-0.0176,0.0039-0.0264,0.0107c-0.0059,0.002-0.0127,0.0049-0.0186,0.0088l-0.0498,0.0127l-0.0303,0.0166
	c-0.0068,0.001-0.0137,0.0039-0.0205,0.0068c-0.0078,0.002-0.0156,0.0039-0.0234,0.0078c-0.0088,0.002-0.0166,0.0049-0.0254,0.0088
	l-0.1299,0.042l-0.0586,0.0293v0.6611h-0.375v0.5059h0.375v1.1123c-0.002,0.0498,0,0.1123,0.0078,0.1738l0.001,0.0342
	c0.0068,0.0322,0.0186,0.0674,0.0322,0.0986l0.0186,0.0537l0.0117,0.0215c0.1211,0.1787,0.3193,0.2686,0.5918,0.2686
	c0.1299,0,0.2754-0.0205,0.4375-0.0605l0.043-0.0107L31.6943,43.6426z"/>
<path class="st2" d="M24.9991,9.8538c7.8144,0,14.1562,6.3408,14.1562,14.1552c0,7.8125-6.3418,14.1553-14.1562,14.1553
	c-7.8145,0-14.1543-6.3428-14.1543-14.1553C10.8448,16.1945,17.1845,9.8538,24.9991,9.8538"/>
<path class="st3" d="M24.9991,12.6536c6.2509,0,11.3242,5.0742,11.3242,11.3252c0,6.25-5.0733,11.3242-11.3242,11.3242
	c-6.252,0-11.3243-5.0742-11.3243-11.3242C13.6748,17.7278,18.747,12.6536,24.9991,12.6536"/>
<path class="st4" d="M23.3584,19.048c-1.5605,0-2.83,1.2676-2.83,2.8311v11.5576h2.83V22.8214c0-0.5214,0.4258-0.9423,0.9454-0.9423
	h8.7734l1.8408-1.4209l-1.8408-1.4102L23.3584,19.048"/>
<polyline class="st2" points="15.7666,33.1838 17.58,34.7043 34.2519,14.8333 32.4463,13.3137 15.7666,33.1838 "/>
</svg>
