<?xml version="1.0" encoding="utf-8"?>
<!-- Generator: Adobe Illustrator 20.1.0, SVG Export Plug-In . SVG Version: 6.00 Build 0)  -->
<svg version="1.0" id="Layer_1" xmlns="http://www.w3.org/2000/svg" xmlns:xlink="http://www.w3.org/1999/xlink" x="0px" y="0px"
	 viewBox="0 0 50 50" style="enable-background:new 0 0 50 50;" xml:space="preserve">
<style type="text/css">
	.st0{fill:#FFFFFF;stroke:#272525;stroke-width:0.53;}
	.st1{fill:#272525;}
	.st2{fill-rule:evenodd;clip-rule:evenodd;fill:#FFFFFF;}
	.st3{fill-rule:evenodd;clip-rule:evenodd;fill:#C2242A;}
	.st4{fill:#1F1D1E;}
</style>
<path class="st0" d="M35.2188,46.4375H14.7813c-0.55,0-1-0.45-1-1v-9.8983c0-0.55,0.45-1,1-1h20.4375c0.55,0,1,0.45,1,1v9.8983
	C36.2188,45.9875,35.7687,46.4375,35.2188,46.4375z"/>
<path class="st1" d="M21.6528,39.2051l-0.0298-0.0752l-0.0317-0.0508c-0.0137-0.0439-0.0366-0.0898-0.0693-0.1367
	c-0.0103-0.0313-0.0259-0.0635-0.0459-0.0977l-0.0391-0.0859c-0.0103-0.0264-0.0264-0.0537-0.0479-0.083
	c-0.0088-0.0254-0.0225-0.0527-0.0386-0.0742L21.27,38.4248l-0.0664-0.1162l-0.0181-0.0537l-0.0811-0.1523
	c0.1997-0.0762,0.3452-0.2227,0.4336-0.4375c0.0981-0.2246,0.1064-0.4707,0.0239-0.7344c-0.1982-0.4902-0.6006-0.7197-1.1792-0.6719
	h-0.9482v3.0918h0.6152v-1.1641h0.4341l0.0908,0.1953c0.0132,0.0215,0.0273,0.0498,0.0444,0.0898l0.1616,0.3135l0.0103,0.0303
	l0.022,0.0332c0.0024,0.0068,0.0059,0.0127,0.0107,0.0186l0.0269,0.0576c0.0088,0.0293,0.0244,0.0596,0.0488,0.0928l0.0054,0.0215
	l0.0479,0.082c0.0146,0.0439,0.0391,0.0957,0.0728,0.1553l0.0376,0.0742h0.6309l-0.0034-0.0527
	C21.6885,39.2656,21.6758,39.2344,21.6528,39.2051z M20.8169,37.6201c-0.0376,0.0049-0.0864,0.0059-0.1528,0.0059h-0.6143v-0.7988
	h0.5723c0.0254-0.0049,0.0566,0,0.0947,0.0068l0.0664,0.0117c0.0986,0.0469,0.1699,0.123,0.2163,0.2285
	C21.0747,37.2969,21.0146,37.4756,20.8169,37.6201z"/>
<rect x="22.1768" y="37.126" class="st1" width="0.5762" height="2.2324"/>
<path class="st1" d="M22.4507,36.9434c0.062,0,0.1348-0.0176,0.2197-0.0586l0.0137-0.0098c0.083-0.083,0.1216-0.1934,0.1157-0.3262
	l-0.0024-0.0146c-0.0581-0.166-0.1855-0.2529-0.3696-0.2529c-0.0078,0-0.0156,0.001-0.0234,0.001l-0.0137,0.002
	c-0.2144,0.0703-0.2959,0.2266-0.2314,0.4619C22.2114,36.8447,22.3013,36.9434,22.4507,36.9434z"/>
<path class="st1" d="M24.0498,37.9385c-0.0361-0.0117-0.0762-0.0225-0.1196-0.0293c-0.0151-0.0078-0.0342-0.0146-0.0581-0.0215
	c-0.0449-0.0293-0.0679-0.0713-0.0718-0.1309c0.0454-0.0889,0.1055-0.1436,0.1836-0.165c0.1377-0.04,0.3408,0.0234,0.5986,0.1885
	l0.0361,0.0234l0.1255-0.1455c0.0137-0.0117,0.0288-0.0283,0.0464-0.0527l0.0664-0.0742l0.022-0.0156l0.0786-0.0957l-0.0327-0.0303
	c-0.2349-0.2217-0.5327-0.334-0.8872-0.334c-0.0107,0-0.022,0-0.0327,0c-0.4761,0.0303-0.7363,0.2764-0.7734,0.7432
	c0.0498,0.4492,0.3574,0.6953,0.915,0.7314l0.1606,0.0557c0.041,0.0488,0.0537,0.1094,0.0386,0.1855
	c-0.0186,0.0156-0.0371,0.0342-0.0557,0.0566c-0.2896,0.0957-0.5557,0.0225-0.8101-0.2197l-0.0381-0.0361l-0.1294,0.1494
	l-0.0215,0.0107L23.2817,38.75c-0.0098,0.0088-0.0161,0.0186-0.0186,0.0234l-0.0093,0.0127
	c-0.0078,0.0068-0.0137,0.0137-0.0176,0.0195c-0.0225,0.0176-0.0454,0.041-0.0684,0.0693l-0.0391,0.0391l-0.0425,0.0791
	l0.0298,0.0254c0.3125,0.2656,0.6279,0.3994,0.9443,0.3994c0.168,0,0.3359-0.0371,0.5039-0.1133
	c0.2632-0.1553,0.3818-0.4004,0.3521-0.7305C24.8545,38.1934,24.5625,37.9805,24.0498,37.9385z"/>
<rect x="25.3564" y="37.126" class="st1" width="0.5762" height="2.2324"/>
<path class="st1" d="M25.6304,36.9434c0.062,0,0.1348-0.0176,0.2197-0.0586l0.0137-0.0098c0.083-0.083,0.1216-0.1934,0.1157-0.3262
	l-0.0024-0.0146c-0.0581-0.166-0.1855-0.2529-0.3696-0.2529c-0.0078,0-0.0156,0.001-0.0234,0.001l-0.0137,0.002
	c-0.2144,0.0703-0.2959,0.2266-0.2314,0.4619C25.3911,36.8447,25.481,36.9434,25.6304,36.9434z"/>
<path class="st1" d="M28.334,37.5215c-0.1494-0.3096-0.4141-0.4658-0.791-0.4658c-0.0117,0-0.0225,0-0.0342,0
	c-0.1475,0.0215-0.2891,0.0811-0.4199,0.1787v-0.124h-0.5684v2.2324h0.5684l-0.001-1.335l0.0273-0.123
	c0.0518-0.1094,0.1357-0.1885,0.252-0.2393c0.1006-0.0352,0.1865-0.0342,0.2539-0.001c0.0723,0.0371,0.1289,0.1152,0.166,0.2266
	l0.0068,0.0391v1.4326h0.5762v-1.6895c-0.0049-0.0322-0.0146-0.0654-0.0313-0.0986L28.334,37.5215z"/>
<path class="st1" d="M29.3916,39.1533c0.2539,0.0781,0.5039,0.043,0.7383-0.1016l0.001,0.2227
	c-0.0078,0.0352-0.0264,0.0723-0.0547,0.1152l-0.0088,0.0186c-0.2793,0.1592-0.6064,0.1465-0.9746-0.043l-0.0537-0.0273
	l-0.0303,0.1064c-0.0166,0.0254-0.0313,0.0566-0.0459,0.0918l-0.1299,0.292l0.041,0.0234c0.2539,0.1455,0.5322,0.2188,0.834,0.2188
	c0.167,0,0.3428-0.0225,0.5244-0.0684l0.165-0.0781l0.0439-0.0479c0.0557-0.043,0.1025-0.0996,0.1396-0.165l0.0342-0.0518
	l0.0596-0.1553l0.0234-0.1563V37.126h-0.5684v0.0996c-0.1514-0.0967-0.3301-0.1465-0.5381-0.1465c-0.0088,0-0.0186,0-0.0283,0
	c-0.2959,0.042-0.5244,0.209-0.6777,0.4941c-0.1592,0.2871-0.1846,0.6133-0.0742,0.9678
	C28.8926,38.8271,29.0859,39.0332,29.3916,39.1533z M29.5059,37.7031l0.1514-0.0557h0.0195c0.0117,0.001,0.0244-0.001,0.0361-0.0068
	c0.2715,0.0088,0.4023,0.1602,0.4092,0.4756c0.0176,0.3184-0.0996,0.4834-0.3623,0.5176c-0.252-0.0107-0.3896-0.1475-0.4209-0.417
	C29.3154,38.0293,29.3701,37.8613,29.5059,37.7031z"/>
<path class="st1" d="M18.7593,42.0518c-0.3564-0.249-0.7061-0.2578-1.0415-0.0283v-0.9492h-0.5684v3.0762h0.5684v-0.1045
	c0.1426,0.0986,0.2993,0.1484,0.4702,0.1484c0.1104,0,0.2271-0.0205,0.3486-0.0625c0.2666-0.0986,0.4634-0.2939,0.5845-0.584
	c0.1772-0.4785,0.1064-0.9404-0.2124-1.3789C18.8687,42.124,18.8169,42.083,18.7593,42.0518z M18.1865,43.6055
	c-0.2188,0.0234-0.3677-0.0752-0.4531-0.2949v-0.5674c0.0103-0.0254,0.0171-0.0518,0.0215-0.0791
	c0.0688-0.1162,0.1753-0.1924,0.3247-0.2324c0.3711,0.0176,0.5469,0.2334,0.5386,0.6563
	C18.5903,43.3799,18.4473,43.5498,18.1865,43.6055z"/>
<path class="st1" d="M21.4917,42.3633c-0.231-0.3682-0.5933-0.5459-1.0688-0.5225c-0.6519,0.1465-0.9648,0.5947-0.9297,1.333
	c0.0186,0.3633,0.186,0.6572,0.499,0.875c0.168,0.1094,0.355,0.165,0.5591,0.165c0.1016,0,0.2075-0.0137,0.3169-0.042
	c0.3809-0.1006,0.6216-0.3574,0.7153-0.7617c0.0898-0.334,0.0601-0.6836-0.0879-1.04L21.4917,42.3633z M21.04,43.1963
	c-0.0322,0.2803-0.1914,0.4297-0.4766,0.4561c-0.2871-0.0283-0.4463-0.2012-0.4863-0.5254
	c-0.0361-0.4004,0.1099-0.6377,0.4468-0.7256c0.1909,0.0146,0.3315,0.0762,0.4185,0.1846
	C21.0474,42.7158,21.0806,42.9209,21.04,43.1963z"/>
<path class="st1" d="M23.1631,43.9209l-0.0259-0.1875l-0.0054-0.1172l-0.061,0.0137c-0.1782,0.041-0.3008,0.0215-0.3716-0.0586
	c-0.0132-0.0801-0.0176-0.1797-0.0127-0.2988v-2.2139h-0.5762v2.6357l0.0015,0.0352c0.0029,0.0137,0.0049,0.0313,0.0063,0.0537
	l0.0024,0.0137c0.0928,0.2705,0.3032,0.4063,0.6279,0.4063c0.1182,0,0.2515-0.0176,0.3999-0.0537l0.0459-0.0117l-0.0313-0.1699
	V43.9209z"/>
<path class="st1" d="M24.4756,43.9209l-0.0259-0.1875l-0.0054-0.1172l-0.061,0.0137c-0.1787,0.041-0.3003,0.0215-0.3716-0.0586
	c-0.0132-0.0801-0.0176-0.1797-0.0127-0.2988v-2.2139h-0.5762v2.6357l0.0015,0.0352c0.0029,0.0137,0.0049,0.0313,0.0063,0.0537
	l0.0024,0.0137c0.0928,0.2705,0.3032,0.4063,0.6279,0.4063c0.1182,0,0.2515-0.0176,0.3999-0.0537l0.0459-0.0117l-0.0313-0.1699
	V43.9209z"/>
<path class="st1" d="M26.4365,43.627v-1.0186c0-0.0498-0.0049-0.1104-0.0166-0.1826c-0.0176-0.0859-0.0605-0.1719-0.1211-0.2461
	l-0.0234-0.0469l-0.0098-0.0127c-0.1992-0.2031-0.4712-0.292-0.8018-0.248l-0.1641,0.0303c-0.0469,0.001-0.0977,0.0127-0.144,0.0322
	l-0.0571,0.0146c-0.0264,0.0039-0.0571,0.0127-0.0811,0.0244l-0.0449,0.0088c-0.0342,0.0117-0.0732,0.0283-0.123,0.0537
	c-0.0059,0.001-0.0127,0.0029-0.0195,0.0068h-0.0264l-0.0146,0.0146l-0.103,0.042l0.0117,0.0449
	c0.0103,0.041,0.0298,0.0801,0.0571,0.1191c0.0073,0.0244,0.0186,0.0479,0.0298,0.0635l0.1069,0.2432l0.0444-0.0166
	c0.5391-0.21,0.7598-0.1709,0.8506-0.1025c0.0625,0.0479,0.0908,0.1328,0.085,0.2529l-0.1489,0.0186l-0.1016,0.0078l-0.0327,0.0078
	c-0.0117,0.001-0.0239,0.0039-0.0376,0.0078c-0.0005,0-0.0015,0-0.002,0c-0.3286,0-0.5737,0.0781-0.729,0.2344
	c-0.1357,0.1357-0.2036,0.332-0.2007,0.5918c0.0625,0.2832,0.2441,0.4785,0.5405,0.583c0.2852,0.0996,0.5645,0.0586,0.8281-0.124
	c0.0923,0.0967,0.2144,0.165,0.3628,0.2041l0.0342,0.0088l0.0195-0.0293c0.0186-0.0273,0.0391-0.0645,0.0625-0.1152
	c0.0303-0.0293,0.0537-0.0674,0.0723-0.1123c0.0176-0.0195,0.0332-0.042,0.0459-0.0684l0.0176-0.0176l0.0059-0.0186
	c0.0088-0.0088,0.0137-0.0176,0.0156-0.0205l0.0557-0.084l-0.0713-0.0156C26.5342,43.7471,26.4785,43.7021,26.4365,43.627z
	 M25.8652,43.5381c-0.0107,0.0156-0.0205,0.0342-0.0288,0.0566c-0.1816,0.1533-0.3691,0.166-0.5635,0.0479
	c-0.0596-0.0566-0.0894-0.1123-0.0894-0.167c0-0.0596,0.0352-0.123,0.1035-0.1895c0.0259-0.0078,0.0532-0.0195,0.082-0.0342
	l0.1348-0.0313h0.0234c0.0122,0,0.0249-0.0029,0.0371-0.0078l0.0464-0.0078c0.0264,0.0029,0.0537-0.002,0.0728-0.0078h0.0469
	c0.0117,0,0.0239-0.002,0.0356-0.0078h0.0942l0.0015,0.3291l0.0039,0.0176L25.8652,43.5381z"/>
<path class="st1" d="M27.6865,42.0654c0-0.0039,0-0.0078,0-0.0117V41.918h-0.5762v2.2246h0.5762v-1.2148l0.0293-0.1699
	c0.1055-0.1943,0.2734-0.2891,0.5098-0.2891c0.0205,0,0.042,0.001,0.0645,0.002l0.0527,0.0039v-0.6035h-0.1514
	C28,41.8711,27.8311,41.9365,27.6865,42.0654z"/>
<path class="st1" d="M30.1338,42.0107c-0.2432-0.1533-0.5186-0.1777-0.8291-0.0654c-0.3369,0.1396-0.5498,0.4121-0.6318,0.8125
	c-0.1064,0.7676,0.1787,1.251,0.8555,1.4395c0.04,0.0059,0.0801,0.0078,0.1201,0.0078c0.1719,0,0.335-0.0527,0.4863-0.1582
	c0,0.0098-0.001,0.0195-0.001,0.0303v0.0732h0.584v-3.0762h-0.584V42.0107z M30.126,43.0957
	c0.0098,0.2012-0.0303,0.3428-0.1211,0.4219c-0.0928,0.0811-0.2432,0.1035-0.4443,0.0664
	c-0.1729-0.0977-0.2803-0.2627-0.3193-0.4893c-0.0215-0.3389,0.1152-0.5527,0.4189-0.6553c0.1719,0.0059,0.2988,0.0537,0.376,0.1445
	C30.127,42.6895,30.1563,42.8584,30.126,43.0957z"/>
<path class="st1" d="M32.0225,42.7383c-0.0371-0.0127-0.0762-0.0225-0.1191-0.0293c-0.0146-0.0078-0.0342-0.0146-0.0586-0.0215
	c-0.0449-0.0293-0.0674-0.0713-0.0713-0.1309c0.0449-0.0889,0.1055-0.1436,0.1836-0.165c0.1348-0.0391,0.3408,0.0234,0.5977,0.1885
	l0.0371,0.0234l0.124-0.1445c0.0146-0.0127,0.0303-0.0303,0.0479-0.0537l0.04-0.0352l0.0254-0.0391l0.0225-0.0156l0.0781-0.0957
	l-0.0322-0.0303c-0.2344-0.2217-0.5322-0.334-0.8867-0.334c-0.0117,0-0.0225,0-0.0332,0c-0.4756,0.0303-0.7363,0.2764-0.7734,0.7432
	c0.0498,0.4492,0.3574,0.6953,0.915,0.7314l0.1611,0.0557c0.041,0.0488,0.0537,0.1104,0.0381,0.1855
	c-0.0186,0.0146-0.0371,0.0342-0.0557,0.0566c-0.2881,0.0947-0.5537,0.0234-0.8105-0.2197l-0.0381-0.0361l-0.1289,0.1494
	l-0.0215,0.0107l-0.0098,0.0186c-0.0088,0.0078-0.0146,0.0166-0.0186,0.0225l-0.0088,0.0137
	c-0.0078,0.0059-0.0127,0.0127-0.0176,0.0186c-0.0215,0.0176-0.0449,0.041-0.0684,0.0693l-0.0391,0.0391l-0.043,0.0791
	l0.0303,0.0254c0.3125,0.2656,0.6279,0.3994,0.9443,0.3994c0.168,0,0.3359-0.0371,0.5039-0.1133
	c0.2627-0.1553,0.3818-0.4004,0.3525-0.7305C32.8271,42.9932,32.5352,42.7803,32.0225,42.7383z"/>
<polyline class="st2" points="27.5823,31.9952 10.4075,31.9952 24.8914,6.7266 39.3846,31.9952 27.5823,31.9952 "/>
<path class="st3" d="M38.9246,33.5421c0.7559-0.0088,1.4571-0.4131,1.835-1.0713c0.3799-0.6563,0.3799-1.4649,0-2.1231
	L26.8416,6.2628c-0.3799-0.6602-1.081-1.0645-1.8408-1.0645c-0.7603,0-1.4605,0.4024-1.8403,1.0586L9.2464,30.3477
	c-0.3877,0.6582-0.3877,1.4668,0,2.1231c0.3779,0.6582,1.0801,1.0625,1.8369,1.0625L38.9246,33.5421 M12.3157,30.6983h25.375
	L25.0008,8.7432L12.3157,30.6983z"/>
<path class="st4" d="M24.9101,25.7159c1.042,0,1.8872,0.8457,1.8872,1.8858c0,1.042-0.8452,1.8867-1.8872,1.8867
	c-1.0401,0-1.8848-0.8447-1.8848-1.8867C23.0253,26.5616,23.87,25.7159,24.9101,25.7159"/>
<path class="st4" d="M24.641,24.7745h0.5664l2.1128-8.3613c0.0342-0.166,0.0518-0.335,0.0518-0.5039
	c0-1.3487-1.0986-2.4444-2.4517-2.4444c-1.354,0-2.4521,1.0957-2.4521,2.4444c0,0.1689,0.0181,0.3379,0.0522,0.5039L24.641,24.7745"
	/>
</svg>
