<?xml version="1.0" encoding="utf-8"?>
<!-- Generator: Adobe Illustrator 20.1.0, SVG Export Plug-In . SVG Version: 6.00 Build 0)  -->
<svg version="1.0" id="Layer_1" xmlns="http://www.w3.org/2000/svg" xmlns:xlink="http://www.w3.org/1999/xlink" x="0px" y="0px"
	 viewBox="0 0 50 50" style="enable-background:new 0 0 50 50;" xml:space="preserve">
<style type="text/css">
	.st0{fill:#FFFFFF;}
	.st1{fill:#4679BB;}
</style>
<path class="st0" d="M49.3667,27.9591c0,1.0905-0.8979,1.973-1.9745,1.973c-14.8238,0-29.6476,0-44.4729,0
	c-1.0883,0-1.9862-0.8825-1.9862-1.973c0-2.6498,0-5.3004,0-7.9502c0-1.0905,0.8979-1.9877,1.9862-1.9877
	c14.8253,0,29.6491,0,44.4729,0c1.0766,0,1.9745,0.8972,1.9745,1.9877C49.3667,22.6587,49.3667,25.3093,49.3667,27.9591"/>
<path class="st1" d="M49.2583,27.9591c0,1.0283-0.8364,1.8654-1.8662,1.8654H2.9192c-1.0356,0-1.8779-0.8371-1.8779-1.8654v-7.9502
	c0-1.0356,0.8423-1.8786,1.8779-1.8786h44.4729c1.0297,0,1.8662,0.843,1.8662,1.8786V27.9591 M49.4751,27.9591v-7.9502
	c0-1.1557-0.9345-2.0961-2.0829-2.0961H2.9192c-1.1557,0-2.0946,0.9404-2.0946,2.0961v7.9502c0,1.1484,0.9389,2.0822,2.0946,2.0822
	h44.4729C48.5405,30.0413,49.4751,29.1075,49.4751,27.9591z"/>
<path class="st1" d="M48.3721,27.9313c0,0.5522-0.4555,1.0077-1.0077,1.0077c-14.796,0-29.592,0-44.4026,0
	c-0.5522,0-1.0078-0.4555-1.0078-1.0077c0-2.636,0-5.2726,0-7.9092c0-0.5376,0.4556-0.9924,1.0078-0.9924
	c14.796,0,29.5934,0,44.4026,0c0.5522,0,1.0077,0.4549,1.0077,0.9924C48.3721,22.6587,48.3721,25.2953,48.3721,27.9313"/>
<polygon class="st0" points="7.522,21.8765 9.1626,21.8765 9.1626,26.9238 10.2437,26.9238 10.2437,21.8765 11.8843,21.8765 
	11.8843,20.8892 7.522,20.8892 "/>
<path class="st0" d="M16.1772,23.4634c-0.4224-0.6733-1.0645-1.0142-1.9146-1.0142c-0.0469,0-0.0947,0.001-0.1431,0.0029
	c-1.2632,0.2832-1.8691,1.1538-1.8008,2.5884c0.0366,0.7026,0.3608,1.271,0.9644,1.6909c0.3232,0.2119,0.6841,0.3184,1.0767,0.3184
	c0.1973,0,0.4023-0.0264,0.6152-0.0801c0.7329-0.1943,1.1963-0.6895,1.377-1.4712c0.1753-0.6538,0.1172-1.3374-0.1729-2.0317
	L16.1772,23.4634z M15.4126,25.0986c-0.0693,0.6011-0.4097,0.9209-1.0352,0.9785c-0.6147-0.0625-0.9551-0.4282-1.04-1.1187
	c-0.0762-0.8374,0.2471-1.3535,0.9619-1.5347c0.4097,0.0298,0.7134,0.1641,0.9019,0.3984c0.0511,0.0636,0.092,0.1373,0.1271,0.2166
	c0.0115,0.0252,0.0189,0.0544,0.0288,0.0811C15.4486,24.377,15.4705,24.7014,15.4126,25.0986z"/>
<path class="st0" d="M19.5093,26.5391l-0.0156-0.0371v-0.0918l-0.0322-0.2227l-0.0146-0.043v-0.1211l-0.0303,0.0068
	c-0.3936,0.0908-0.6733,0.0371-0.8306-0.1582c-0.0298-0.1646-0.0396-0.3765-0.0298-0.6299v-4.353h-1.0029v2.353l0.0005,2.8965
	c0.0078,0.0303,0.0127,0.0713,0.0151,0.1201l0.0015,0.0068c0.1733,0.5078,0.5723,0.7627,1.1895,0.7627
	c0.229,0,0.4883-0.0352,0.7773-0.1055l0.0229-0.0059l-0.0508-0.2842C19.5093,26.6326,19.5093,26.5391,19.5093,26.5391z"/>
<path class="st0" d="M22.1343,26.5391l-0.0156-0.0371v-0.0918l-0.0322-0.2227l-0.0146-0.043v-0.1211l-0.0303,0.0068
	c-0.3926,0.0908-0.6729,0.0371-0.8306-0.1582c-0.0298-0.1646-0.0396-0.3765-0.0298-0.6299v-4.353h-1.0029v2.353l0.0005,2.8965
	c0.0078,0.0303,0.0127,0.0713,0.0151,0.1201l0.0015,0.0068c0.1733,0.5078,0.5723,0.7627,1.1895,0.7627
	c0.229,0,0.4883-0.0352,0.7773-0.1055l0.0229-0.0059l-0.0508-0.2842C22.1343,26.6326,22.1343,26.5391,22.1343,26.5391z"/>
<path class="st0" d="M26.3594,23c-0.0078-0.0562-0.0098-0.1206-0.0059-0.1953v-0.1968h-1.0034v4.3003h1.0034l-0.001-2.3657
	l0.0156-0.1084l0.0459-0.2461c0.2422-0.4526,0.6514-0.6646,1.2246-0.624l0.0273,0.002v-1.0518h-0.2285
	C27.0205,22.5142,26.6582,22.6777,26.3594,23z"/>
<path class="st0" d="M32.3184,23.4634c-0.4219-0.6733-1.0645-1.0142-1.915-1.0142c-0.0469,0-0.0947,0.001-0.1436,0.0029
	c-1.2627,0.2832-1.8682,1.1538-1.8008,2.5884c0.0371,0.7017,0.3613,1.271,0.9648,1.6909c0.3232,0.2119,0.6836,0.3184,1.0762,0.3184
	c0.1973,0,0.4023-0.0264,0.6162-0.0801c0.7324-0.1943,1.1953-0.6895,1.377-1.4712c0.1748-0.6533,0.1172-1.3369-0.1729-2.0317
	L32.3184,23.4634z M31.5537,25.0986c-0.0693,0.6011-0.4102,0.9209-1.0352,0.9785c-0.6152-0.0625-0.9551-0.4282-1.041-1.1187
	c-0.0762-0.8374,0.248-1.3535,0.9619-1.5347c0.4102,0.0298,0.7139,0.1641,0.9023,0.3984c0.051,0.0634,0.0919,0.1369,0.1271,0.216
	c0.012,0.0262,0.0198,0.0565,0.03,0.0844C31.5897,24.3793,31.6115,24.7028,31.5537,25.0986z"/>
<path class="st0" d="M36.9473,25.9707v-2.0566c0-0.0903-0.0107-0.207-0.0322-0.3491c-0.0352-0.1621-0.1152-0.3232-0.2363-0.4746
	l-0.0469-0.0938l-0.0049-0.0063c-0.3838-0.3896-0.8975-0.5513-1.5381-0.4756l-0.3398,0.062
	c-0.0869,0.0029-0.1787,0.0244-0.2705,0.063l-0.1221,0.0308c-0.0469,0.0054-0.1016,0.022-0.1582,0.0474l-0.0811,0.0161
	c-0.0703,0.0234-0.1533,0.0596-0.2471,0.1074c0,0,0,0-0.001,0c-0.0117,0-0.0244,0.0054-0.0361,0.0166h-0.0469l-0.0342,0.0342
	l-0.0439,0.0151l-0.0283,0.0142l-0.0693,0.0229l0.0059,0.0229c0.0195,0.0752,0.0557,0.1484,0.1104,0.2231
	c0.0127,0.0459,0.0342,0.0938,0.0625,0.1377l0.0322,0.0972l0.0156,0.0313l0.0322,0.0337l0.0303,0.0903l0.0723,0.1621l0.0215-0.0083
	c0.8926-0.3467,1.4902-0.4126,1.7734-0.1948c0.1582,0.1206,0.2236,0.3335,0.1953,0.6333l-0.3682,0.0444h-0.0469l-0.0508,0.0156
	h-0.1055l-0.0508,0.0156c-0.0254,0.0005-0.0518,0.0059-0.0791,0.0156c-0.0039,0-0.0078,0-0.0117,0
	c-0.6387,0-1.1123,0.1504-1.4082,0.4468c-0.2568,0.2578-0.3848,0.6309-0.3809,1.1147c0.1182,0.5376,0.4658,0.9116,1.0322,1.1118
	c0.5654,0.1934,1.1113,0.1035,1.625-0.2637h0.0273c0.1787,0.2012,0.4219,0.3428,0.7246,0.4209l0.0166,0.0039l0.0098-0.0146
	c0.0371-0.0557,0.0791-0.1348,0.125-0.2334c0.0576-0.0527,0.1055-0.126,0.1416-0.2197c0.0352-0.0361,0.0664-0.084,0.0928-0.1396
	l0.0283-0.0283l0.0186-0.0459c0.0146-0.0088,0.0244-0.0244,0.0313-0.0361l0.0518-0.0771l-0.0361-0.0078
	C37.1719,26.2588,37.04,26.1523,36.9473,25.9707z M35.9463,25.8081c-0.0225,0.0288-0.043,0.0688-0.0615,0.1226
	c-0.3955,0.3428-0.8027,0.376-1.2422,0.1055c-0.1348-0.1265-0.2021-0.2573-0.2021-0.3882c0.001-0.1431,0.083-0.293,0.2441-0.4453
	c0.0527-0.0137,0.1123-0.0386,0.1816-0.0762l0.0459-0.0005l0.2441-0.062h0.0469c0.0186,0,0.0371-0.0054,0.0547-0.0156l0.0449-0.0005
	l0.0586-0.0146c0.0068,0,0.0146,0.0005,0.0215,0.0005c0.0391,0,0.084-0.0059,0.1328-0.0166h0.0938
	c0.0186,0,0.0371-0.0054,0.0537-0.0156h0.2803l0.001,0.7153l0.0137,0.0557L35.9463,25.8081z"/>
<path class="st0" d="M41.0996,20.9204v1.9429c-0.4912-0.3711-1.0635-0.4395-1.7031-0.2065
	c-0.6504,0.2705-1.0605,0.7974-1.2178,1.5664c-0.209,1.4922,0.3438,2.4321,1.6455,2.7935c0.0771,0.0117,0.1543,0.0166,0.2295,0.0166
	c0.3672,0,0.7158-0.1289,1.0391-0.3857c0.0088,0.0586,0.0107,0.125,0.0068,0.2041v0.0723h1.0195v-6.0034h-1.0195V20.9204z
	 M40.8164,25.79c-0.2031,0.1772-0.5283,0.2275-0.9639,0.147c-0.375-0.209-0.6055-0.5596-0.6875-1.0415
	c-0.0479-0.7134,0.2549-1.1826,0.9014-1.394c0.373,0.0093,0.6494,0.1152,0.8203,0.3149c0.1953,0.2275,0.2617,0.585,0.1973,1.0679
	C41.1055,25.3105,41.0156,25.6157,40.8164,25.79z"/>
</svg>
