<?xml version="1.0" encoding="utf-8"?>
<!-- Generator: Adobe Illustrator 20.1.0, SVG Export Plug-In . SVG Version: 6.00 Build 0)  -->
<svg version="1.0" id="Layer_1" xmlns="http://www.w3.org/2000/svg" xmlns:xlink="http://www.w3.org/1999/xlink" x="0px" y="0px"
	 viewBox="0 0 50 50" style="enable-background:new 0 0 50 50;" xml:space="preserve">
<style type="text/css">
	.st0{fill-rule:evenodd;clip-rule:evenodd;fill:#FFFFFF;}
	.st1{fill-rule:evenodd;clip-rule:evenodd;fill:#C2242A;}
	.st2{fill-rule:evenodd;clip-rule:evenodd;fill:#1F1D1E;}
</style>
<polyline class="st0" points="18.4472,34.3614 10.8002,34.3614 24.9472,9.5958 39.3261,34.3614 18.4472,34.3614 "/>
<path class="st1" d="M38.8881,36.1476c0.7529,0,1.4448-0.4034,1.8222-1.0586c0.3858-0.6563,0.3858-1.4629,0-2.1192L26.8329,8.9474
	c-0.3789-0.6543-1.0757-1.0577-1.833-1.0577c-0.7578,0-1.4575,0.4063-1.8359,1.0635L9.2831,32.9698
	c-0.377,0.6563-0.377,1.4629,0,2.1192c0.3769,0.6552,1.0859,1.0586,1.8398,1.0586H38.8881 M12.3441,33.3194h25.3042L24.9999,11.4269
	L12.3441,33.3194z"/>
<path class="st2" d="M34.3803,30.7452v1.418H15.5214v-1.418h2.7099c0.003,0,0.0069,0,0.0098,0c0.479,0,0.939-0.1836,1.2881-0.5098
	l0.0132,0.0137c1.4765-1.3506,3.4048-2.1006,5.4048-2.1006c1.9751,0,3.8828,0.7334,5.354,2.0537l0.0019-0.0048
	c0.3472,0.3457,0.813,0.542,1.3032,0.5478H34.3803"/>
</svg>
