<?xml version="1.0" encoding="utf-8"?>
<!-- Generator: Adobe Illustrator 20.1.0, SVG Export Plug-In . SVG Version: 6.00 Build 0)  -->
<svg version="1.0" id="Layer_1" xmlns="http://www.w3.org/2000/svg" xmlns:xlink="http://www.w3.org/1999/xlink" x="0px" y="0px"
	 viewBox="0 0 50 50" style="enable-background:new 0 0 50 50;" xml:space="preserve">
<style type="text/css">
	.st0{fill:#CA252B;}
	.st1{fill:#FFFFFF;}
	.st2{fill:#262425;}
	.st3{fill:#FEFEFE;}
	.st4{fill:#222222;}
</style>
<g>
	<path class="st0" d="M24.999,10.9092c7.7773,0,14.0918,6.3125,14.0918,14.0908S32.7763,39.0908,24.999,39.0908
		c-7.7783,0-14.0899-6.3125-14.0899-14.0908S17.2207,10.9092,24.999,10.9092"/>
	<path class="st1" d="M24.999,13.7315c6.2217,0,11.2676,5.0488,11.2676,11.2685c0,6.2207-5.0459,11.2676-11.2676,11.2676
		c-6.2188,0-11.2676-5.0469-11.2676-11.2676C13.7314,18.7803,18.7802,13.7315,24.999,13.7315"/>
	<polyline class="st2" points="35.331,27.8252 31.7579,25.7617 35.331,23.6914 35.331,27.8252 	"/>
	<polyline class="st2" points="14.665,23.6914 14.665,27.8252 18.247,25.7617 14.665,23.6914 	"/>
</g>
<path class="st3" d="M17.9292,18.1401c4.5551,0,9.1102,0.0043,13.6653-0.0091c0.3248-0.001,0.3913,0.0654,0.3903,0.3902
	c-0.0136,4.428-0.0136,8.8561,0,13.2841c0.001,0.3248-0.0654,0.3913-0.3902,0.3903c-4.428-0.0136-8.8561-0.0136-13.2841,0
	c-0.3248,0.001-0.3912-0.0654-0.3903-0.3902C17.9336,27.2503,17.9292,22.6952,17.9292,18.1401z"/>
<path class="st4" d="M30.1714,21.9276c-0.0267-0.8592-0.0736-0.898-0.9043-0.7168c-0.0434-0.4519-0.1035-0.9001-0.2486-1.3328
	c-0.1477-0.4403-0.4395-0.692-0.9101-0.7337c-2.1378-0.1892-4.2753-0.1871-6.4133-0.003c-0.4958,0.0427-0.7844,0.3159-0.9342,0.7781
	c-0.1392,0.4293-0.181,0.8759-0.245,1.3208c-0.7937-0.2363-0.9011-0.1555-0.8983,0.6215c0.0013,0.343-0.0334,0.686-0.0354,1.0291
	c-0.0049,0.8769,0.0494,0.9185,0.9602,0.7524c0,0.6759-0.0035,1.3456,0.002,2.015c0.0015,0.1752-0.0559,0.3699,0.0996,0.5148
	c0.22,0.205,0.1964,0.3646-0.0747,0.4963c-0.1074,0.0522-0.149,0.1546-0.1485,0.2708c0.0064,1.3516-0.1217,2.7121,0.2643,4.0389
	c0.0352,0.1213,0.1138,0.2205,0.2265,0.2163c0.0291,0.0173,0.0565,0.0385,0.0926,0.0385h0.6274
	c0.0029,0,0.0046-0.0031,0.0076-0.0032c0.205-0.0046,0.3786-0.0938,0.4425-0.4727c0.0259-0.1535,0.2163-0.0923,0.3321-0.0926
	c1.651-0.0044,3.302-0.0041,4.953-0.0007c0.1187,0.0002,0.3209-0.0526,0.3391,0.0798c0.0488,0.3572,0.2036,0.4576,0.3915,0.476
	c0.0118,0.0029,0.0198,0.0134,0.0323,0.0134H28.82c0.0264,0,0.046-0.0165,0.0678-0.0282c0.114-0.0146,0.2115-0.0891,0.211-0.2127
	c-0.0021-0.5498,0.3339-1.0258,0.2916-1.5907c-0.046-0.6134,0.0035-1.2333-0.0155-1.8496c-0.0109-0.3541,0.157-0.7743-0.3152-1.0011
	c-0.0972-0.0466-0.086-0.2154,0.0061-0.287c0.2674-0.208,0.1807-0.4938,0.1846-0.7548c0.0093-0.6246,0.003-1.2495,0.003-1.8869
	c0.8854,0.1951,0.9649,0.1382,0.9599-0.666C30.2112,22.6138,30.1821,22.2709,30.1714,21.9276z M21.87,28.6148
	c-0.2494-0.0106-0.5303,0.049-0.5135-0.3517c0.0098-0.2333,0.0018-0.4674,0.0018-0.7011c-0.0005-0.0001-0.0012-0.0001-0.0018-0.0001
	c0-0.1798,0.0063-0.3599-0.0015-0.5393c-0.0114-0.2636,0.0294-0.451,0.3683-0.4521c0.3174-0.001,0.5153,0.0567,0.5125,0.4337
	c-0.0031,0.4127,0.0227,0.827,0.0609,1.2383C22.3288,28.588,22.1374,28.6261,21.87,28.6148z M22.7412,28.5468
	c-0.0009-0.0326-0.0019-0.0652-0.0028-0.0978c1.4378,0,2.8757,0,4.3135,0c0.0005,0.0327,0.0011,0.0652,0.0016,0.0978
	C25.6161,28.5468,24.1786,28.5468,22.7412,28.5468z M27.0899,28.0471c-1.462,0-2.9239,0-4.3859,0c0-0.0355,0-0.071,0.0001-0.1066
	c1.462,0,2.9239,0,4.3859,0C27.0899,27.976,27.0899,28.0115,27.0899,28.0471z M22.6522,27.5646c0-0.0364,0-0.0727,0-0.1091
	c1.4961,0,2.9922,0,4.4884,0c0,0.0364,0.0001,0.0728,0.0001,0.1091C25.6445,27.5646,24.1483,27.5646,22.6522,27.5646z
	 M22.6554,27.0668c0-0.0353,0.0001-0.0706,0.0001-0.106c1.4949,0,2.9898,0,4.4847,0c-0.0001,0.0353-0.0001,0.0707-0.0001,0.106
	C25.6452,27.0668,24.1503,27.0668,22.6554,27.0668z M24.8391,23.8546c-1.1409,0.0001-2.282-0.0134-3.4226,0.0069
	c-0.4402,0.0079-0.6279-0.1373-0.6055-0.5931c0.0355-0.7228,0.0369-1.4473,0.0462-2.1711c0.0047-0.3627,0.1731-0.5098,0.5393-0.5085
	c2.3361,0.0082,4.6722,0.0066,7.0083,0.0015c0.3266-0.0007,0.5214,0.1106,0.5273,0.4609c0.0135,0.7962,0.0287,1.5924,0.0436,2.3886
	c0.0074,0.3926-0.2572,0.4167-0.5511,0.416C27.2295,23.8529,26.0343,23.8545,24.8391,23.8546z M27.5037,28.1144
	c0.027-0.3586,0.0488-0.7184,0.0514-1.0778c0.0024-0.334,0.1257-0.4755,0.4832-0.4696c0.3603,0.0059,0.4197,0.1846,0.4034,0.4766
	c-0.0109,0.1973-0.0021,0.3957-0.002,0.5936c0,0.1619-0.0167,0.3259,0.0033,0.4853c0.0539,0.4296-0.1655,0.4966-0.5395,0.5021
	C27.4888,28.6307,27.4812,28.4137,27.5037,28.1144z"/>
</svg>
