<?xml version="1.0" encoding="utf-8"?>
<!-- Generator: Adobe Illustrator 20.1.0, SVG Export Plug-In . SVG Version: 6.00 Build 0)  -->
<svg version="1.0" id="Layer_1" xmlns="http://www.w3.org/2000/svg" xmlns:xlink="http://www.w3.org/1999/xlink" x="0px" y="0px"
	 viewBox="0 0 50 50" style="enable-background:new 0 0 50 50;" xml:space="preserve">
<style type="text/css">
	.st0{fill:#CA252B;}
	.st1{fill:#FFFFFF;}
	.st2{fill:#262425;}
</style>
<path class="st0" d="M24.999,10.9092c7.7773,0,14.0918,6.3125,14.0918,14.0908S32.7763,39.0908,24.999,39.0908
	c-7.7783,0-14.0899-6.3125-14.0899-14.0908S17.2207,10.9092,24.999,10.9092"/>
<path class="st1" d="M24.999,13.7315c6.2217,0,11.2676,5.0488,11.2676,11.2685c0,6.2207-5.0459,11.2676-11.2676,11.2676
	c-6.2188,0-11.2676-5.0469-11.2676-11.2676C13.7314,18.7803,18.7802,13.7315,24.999,13.7315"/>
<polyline class="st2" points="35.331,27.8252 31.7579,25.7617 35.331,23.6914 35.331,27.8252 "/>
<polyline class="st2" points="14.665,23.6914 14.665,27.8252 18.247,25.7617 14.665,23.6914 "/>
</svg>
