<?xml version="1.0" encoding="utf-8"?>
<!-- Generator: Adobe Illustrator 20.1.0, SVG Export Plug-In . SVG Version: 6.00 Build 0)  -->
<svg version="1.0" id="Layer_1" xmlns="http://www.w3.org/2000/svg" xmlns:xlink="http://www.w3.org/1999/xlink" x="0px" y="0px"
	 viewBox="0 0 50 50" style="enable-background:new 0 0 50 50;" xml:space="preserve">
<style type="text/css">
	.st0{fill:#4679BB;}
	.st1{fill:#FFFFFF;stroke:#272525;stroke-width:0.53;}
	.st2{fill:#272525;}
</style>
<path class="st0" d="M24.9991,10.0205c7.709,0,13.9824,6.2715,13.9824,13.9814c0,7.709-6.2734,13.9805-13.9824,13.9805
	S11.0185,31.711,11.0185,24.0019C11.0185,16.292,17.2901,10.0205,24.9991,10.0205V9.832c-7.8125,0-14.168,6.3574-14.168,14.1699
	c0,7.8135,6.3555,14.166,14.168,14.166c7.8144,0,14.1699-6.3525,14.1699-14.166c0-7.8125-6.3555-14.1699-14.1699-14.1699V10.0205"/>
<path class="st0" d="M24.9991,10.4462c7.4609,0,13.5156,6.0567,13.5156,13.5157c0,7.4599-6.0547,13.5146-13.5156,13.5146
	c-7.459,0-13.5137-6.0547-13.5137-13.5146C11.4854,16.5029,17.5401,10.4462,24.9991,10.4462"/>
<path class="st1" d="M35.2188,39.1017H14.7813c-0.55,0-1,0.45-1,1v4.625c0,0.55,0.45,1,1,1h20.4375c0.55,0,1-0.45,1-1v-4.625
	C36.2188,39.5517,35.7687,39.1017,35.2188,39.1017z"/>
<path class="st2" d="M18.7129,40.8789h0.0547h0.1563h0.0625h0.0625h0.0625h0.0625h0.1563h0.0234h0.0234h0.2422h0.0547h0.0469h0.0547
	h0.0469h0.0391h0.0469h0.0313h0.1406h0.0859h0.0313h0.0313h0.0313h0.0313h0.1328h0.0234h0.0938v0.4688h-0.0234h-0.0391h-0.0234
	h-0.0313h-0.0234h-0.1563h-0.0313h-0.0391h-0.1016H20.041h-0.1328h-0.0234H19.791h-0.0313h-0.0313h-0.0234h-0.1406h-0.1016h-0.0313
	h-0.1328h-0.0234h-0.0938v0.75c0.0024,0.0244,0.0156,0.0352,0.0391,0.0313h0.0547h0.0469h0.0547h0.0469h0.0547h0.0469h0.1328h0.0469
	h0.0391h0.0469h0.0313h0.1406h0.0859h0.0313h0.0313h0.0313h0.0313h0.1328h0.0234h0.0938v0.4609h-0.0547h-0.0469h-0.1328H20.166
	h-0.0938h-0.1016h-0.0313h-0.1328h-0.0234h-0.0938h-0.0859h-0.0391h-0.1016h-0.0313h-0.1328h-0.0234h-0.0938v0.7813
	c-0.0015,0.0273,0.0093,0.04,0.0313,0.0391h0.0234h0.0234h0.1563h0.0234h0.0234h0.2422h0.0547h0.0469h0.0547h0.0469h0.0391h0.0469
	h0.0313h0.1406h0.0859h0.0313h0.0313h0.0313h0.0313h0.1328h0.0234h0.0938v0.4609h-0.0234h-0.0313h-0.1328H20.416h-0.0938H20.166
	h-0.0313h-0.1406h-0.0234h-0.0234h-0.2422h-0.1328h-0.0234h-0.0938h-0.0313h-0.0234h-0.1563h-0.0313h-0.0234h-0.1406h-0.1016H18.916
	h-0.1328h-0.0234H18.666v-0.0313v-0.1406v-0.0625v-0.0625v-0.0234v-0.0313v-0.1406v-0.0234v-0.1563v-0.0625v-0.0313v-0.1406v-0.0234
	V42.918v-0.2422v-0.0547v-0.0234v-0.0313v-0.1406v-0.1094V42.293v-0.0391v-0.0234v-0.0313v-0.0234v-0.1563v-0.1328v-0.0234v-0.0938
	V41.668v-0.0313v-0.1328v-0.0234v-0.0938v-0.0859v-0.0391v-0.1016v-0.0313v-0.1328v-0.0234v-0.0938H18.7129z"/>
<path class="st2" d="M21.0977,41.7383h0.1406h0.1016h0.0313h0.1328h0.0625h0.0547l0.0234,0.0391l0.0156,0.0313l0.0234,0.0234
	l0.0156,0.0391l0.0234,0.0234c0.0181,0.0273,0.0313,0.0508,0.0391,0.0703l0.0156,0.0234l0.0234,0.0234l0.0078,0.0234l0.0234,0.0234
	l0.0078,0.0234l0.0156,0.0234l0.0156,0.0234l0.0234,0.0234l0.0078,0.0234l0.0156,0.0156l0.0078,0.0234l0.0859,0.1094
	c0.0273-0.0576,0.0562-0.1016,0.0859-0.1328l0.0078-0.0156l0.0703-0.1094l0.0391-0.0625l0.0156-0.0156l0.0156-0.0234l0.0078-0.0234
	l0.0234-0.0234l0.0078-0.0234l0.0156-0.0156l0.0313-0.0391c0.0181-0.042,0.0391-0.0752,0.0625-0.1016h0.0313h0.0859h0.0391h0.1016
	h0.0313h0.1328h0.0625h0.0547l-0.0234,0.0547l-0.0313,0.0391l-0.0313,0.0391c-0.0234,0.0508-0.0493,0.0928-0.0781,0.125
	l-0.0234,0.0391l-0.0078,0.0156l-0.0625,0.0859l-0.0469,0.0859l-0.0313,0.0313l-0.0156,0.0313l-0.0156,0.0234l-0.0234,0.0391
	c-0.021,0.0352-0.0415,0.0635-0.0625,0.0859l-0.0078,0.0234l-0.0469,0.0625l-0.0078,0.0156
	c-0.0054,0.0088-0.0103,0.0146-0.0156,0.0156l-0.0078,0.0156l-0.0078,0.0156l-0.0078,0.0156
	c-0.0337,0.0576-0.0649,0.1016-0.0938,0.1328l0.0078,0.0313l0.0156,0.0313c0.0078,0.0068,0.0132,0.0146,0.0156,0.0234l0.0234,0.0234
	l0.0156,0.0313l0.0156,0.0234c0.0181,0.0195,0.0313,0.04,0.0391,0.0625l0.0156,0.0156l0.0313,0.0547
	c0.0063,0.0049,0.0093,0.0107,0.0078,0.0156c0.0376,0.04,0.064,0.0791,0.0781,0.1172l0.0234,0.0313l0.0156,0.0156l0.0859,0.1328
	l0.0234,0.0391l0.0234,0.0313c0.0249,0.0361,0.043,0.0674,0.0547,0.0938c0.0078,0.0068,0.0132,0.0146,0.0156,0.0234l0.0156,0.0234
	l0.0156,0.0234c0.0063,0.0049,0.0093,0.0107,0.0078,0.0156c0.0259,0.0283,0.0469,0.0547,0.0625,0.0781l0.0313,0.0469l0.0078,0.0234
	c0.0376,0.0439,0.064,0.0859,0.0781,0.125h-0.0313h-0.0859h-0.0391h-0.1016h-0.0313h-0.1328h-0.0234h-0.0938l-0.0313-0.0391
	l-0.0156-0.0391l-0.0313-0.0391l-0.0156-0.0313l-0.0234-0.0234c-0.021-0.0342-0.0391-0.0596-0.0547-0.0781l-0.0078-0.0156
	l-0.0703-0.1094c-0.022-0.0303-0.0376-0.0557-0.0469-0.0781c-0.0093-0.0049-0.0142-0.0107-0.0156-0.0156l-0.0156-0.0156
	l-0.0156-0.0234l-0.1094-0.1797l-0.0234-0.0078l-0.0156,0.0391l-0.0156,0.0078c-0.0132,0.0313-0.0288,0.0576-0.0469,0.0781
	l-0.0234,0.0313l-0.0078,0.0234l-0.0156,0.0078c-0.0195,0.0391-0.0376,0.0703-0.0547,0.0938l-0.0234,0.0234l-0.0156,0.0391
	l-0.0156,0.0234l-0.0156,0.0078c-0.0132,0.0313-0.0288,0.0576-0.0469,0.0781l-0.0156,0.0234
	c-0.0054,0.0088-0.0103,0.0146-0.0156,0.0156l-0.0156,0.0234l-0.0078,0.0156l-0.0156,0.0313l-0.0156,0.0234
	c-0.0313,0.042-0.0547,0.0781-0.0703,0.1094h-0.0313h-0.0859h-0.0391h-0.1016h-0.0313h-0.1328h-0.0234h-0.0938l0.0234-0.0469
	l0.0313-0.0469l0.0156-0.0156l0.0781-0.1328l0.0313-0.0469l0.0313-0.0313l0.0156-0.0391l0.0156-0.0156l0.0313-0.0469l0.0391-0.0703
	l0.0234-0.0313l0.0781-0.1172l0.0234-0.0234l0.0156-0.0391l0.0234-0.0313l0.0156-0.0234l0.0234-0.0313l0.0156-0.0234l0.0156-0.0234
	l0.0078-0.0234l0.0156-0.0234l0.0156-0.0156l0.0156-0.0234l0.0156-0.0234l0.0156-0.0234c0.0156-0.0264,0.0313-0.0469,0.0469-0.0625
	c0.0117-0.0313,0.0273-0.0576,0.0469-0.0781l-0.0234-0.0547l-0.0703-0.1016l-0.0234-0.0469l-0.0313-0.0313l-0.0234-0.0391
	l-0.0234-0.0313l-0.0156-0.0391l-0.0234-0.0313l-0.0156-0.0156l-0.0156-0.0234l-0.0078-0.0234
	c-0.0259-0.0283-0.0469-0.0547-0.0625-0.0781l-0.0469-0.0781l-0.0234-0.0313l-0.0078-0.0234
	c-0.0078-0.0068-0.0132-0.0146-0.0156-0.0234l-0.0234-0.0234l-0.0156-0.0313l-0.0156-0.0156l-0.0078-0.0234
	c-0.0063-0.0049-0.0093-0.0107-0.0078-0.0156c-0.0376-0.04-0.064-0.0791-0.0781-0.1172c-0.0376-0.04-0.064-0.0791-0.0781-0.1172
	H21.0977z"/>
<path class="st2" d="M25.1523,42.2617l-0.0859,0.0313c-0.021,0.0166-0.0415,0.0303-0.0625,0.0391l-0.0156,0.0078l-0.0469,0.0156
	c-0.021,0.0166-0.0415,0.0273-0.0625,0.0313l-0.125,0.0703c-0.1328-0.2607-0.3335-0.3672-0.6016-0.3203l-0.0234,0.0156
	l-0.0234,0.0078l-0.0859,0.0469c-0.0415,0.0498-0.0781,0.0889-0.1094,0.1172c-0.1694,0.3447-0.1641,0.665,0.0156,0.9609
	c0.1079,0.1377,0.2407,0.2002,0.3984,0.1875c0.2109-0.0342,0.3569-0.1436,0.4375-0.3281l0.0781,0.0469l0.0313,0.0156
	c0.0273,0.0078,0.0483,0.0156,0.0625,0.0234l0.0313,0.0156l0.0156,0.0156l0.1719,0.0781c-0.2397,0.4258-0.5859,0.6055-1.0391,0.5391
	c-0.4673-0.0977-0.7329-0.3916-0.7969-0.8828c-0.0376-0.3086,0.0117-0.582,0.1484-0.8203c0.1616-0.293,0.4116-0.4492,0.75-0.4688
	C24.6602,41.7158,24.9727,41.9014,25.1523,42.2617z"/>
<path class="st2" d="M27.4023,42.6055l0.0078,0.1172c0.0059,0.0078,0.0078,0.0156,0.0078,0.0234v0.2344h-0.0625h-0.1563h-0.0234
	h-0.0234h-0.2422h-0.0547h-0.0469h-0.0547H26.707H26.668h-0.0469h-0.0313h-0.1406h-0.0859H26.332h-0.0313h-0.0313h-0.0313h-0.1328
	H26.082h-0.0938c0.0293,0.2656,0.1641,0.4219,0.4063,0.4688c0.2451,0.0303,0.4512-0.0322,0.6172-0.1875
	c0.0186,0.0283,0.0391,0.0518,0.0625,0.0703l0.0078,0.0234l0.0234,0.0234c0.0352,0.0322,0.0615,0.0635,0.0781,0.0938
	c0.0098,0.0049,0.0146,0.0107,0.0156,0.0156l0.1094,0.125c-0.334,0.2783-0.6963,0.3701-1.0859,0.2734
	c-0.4507-0.1494-0.6978-0.4727-0.7422-0.9688c-0.0234-0.7256,0.2813-1.1367,0.9141-1.2344
	C27.0029,41.7061,27.3389,42.0127,27.4023,42.6055z M25.9805,42.6133h0.0469h0.1328h0.0469h0.0391h0.0469h0.0313h0.1406h0.0859
	h0.0313h0.0313h0.0313h0.0313h0.1328h0.0625h0.0547v-0.0234c-0.0078-0.0205-0.0098-0.042-0.0078-0.0625
	c-0.0127-0.0303-0.0205-0.0557-0.0234-0.0781c-0.0947-0.2217-0.2539-0.333-0.4766-0.3359
	C26.1406,42.1797,25.9946,42.3467,25.9805,42.6133z"/>
<path class="st2" d="M28.9492,41.6836c0.0693,0.001,0.127,0.0068,0.1719,0.0156c0.5488,0.2021,0.7988,0.6055,0.75,1.2109
	c-0.0352,0.4561-0.2383,0.7656-0.6094,0.9297c-0.3398,0.125-0.6338,0.083-0.8828-0.125v0.8125h-0.1094h-0.0859h-0.0391h-0.0234
	h-0.0313h-0.0234h-0.1563v-0.0234v-0.0234v-0.0391V44.418v-0.0313v-0.0234V44.207v-0.0313v-0.1406v-0.1094v-0.0234v-0.0391v-0.0234
	v-0.0313v-0.0234v-0.1563v-0.0313v-0.0391V43.457v-0.0313V43.293v-0.0234v-0.0938v-0.0547v-0.0625v-0.0625v-0.0625v-0.0234v-0.0234
	v-0.2422v-0.0547V42.543v-0.0547v-0.0469v-0.0391v-0.0469v-0.0313v-0.1406v-0.0859v-0.0313v-0.0313v-0.0313v-0.0313v-0.1328v-0.0234
	v-0.0938h0.1094h0.0859h0.0391h0.0234h0.0313h0.0234h0.1563v0.1641c0.1367-0.1104,0.2832-0.1787,0.4375-0.2031H28.9492z
	 M28.3945,42.7148c-0.0322,0.2656,0.0098,0.4688,0.125,0.6094c0.1973,0.1377,0.3896,0.1533,0.5781,0.0469
	c0.2168-0.1602,0.3105-0.3789,0.2813-0.6563c-0.0605-0.3369-0.2461-0.5195-0.5547-0.5469
	C28.5137,42.2314,28.3701,42.4141,28.3945,42.7148z"/>
<path class="st2" d="M31.1055,40.918v0.8125h0.0391h0.0313h0.0391h0.0313h0.0391h0.1016h0.0313h0.1328h0.0625h0.0547v0.4063h-0.0391
	h-0.0313h-0.0391h-0.0313h-0.0391h-0.1016h-0.0313h-0.1328h-0.0234h-0.0938v1.0469c-0.002,0.0693,0,0.126,0.0078,0.1719
	c0.124,0.1133,0.291,0.1318,0.5,0.0547l0.0078,0.0234v0.0469c0.0078,0.0313,0.0107,0.0596,0.0078,0.0859
	c0.0098,0.0303,0.0146,0.0557,0.0156,0.0781l0.0234,0.1953c-0.4844,0.1211-0.8096,0.0586-0.9766-0.1875l-0.0078-0.0156
	l-0.0156-0.0469c-0.0156-0.0361-0.0254-0.0674-0.0313-0.0938v-0.0234c-0.0078-0.0703-0.0098-0.1279-0.0078-0.1719v-0.1563v-0.0469
	v-0.0234V43.043v-0.0234v-0.0391V42.957v-0.0313v-0.0234v-0.1563v-0.0313v-0.0313v-0.0234v-0.1406V42.418v-0.0313v-0.1328v-0.0234
	v-0.0938h-0.0313h-0.0313h-0.0313h-0.0313h-0.1328h-0.0234h-0.0938v-0.1094v-0.0234v-0.0391v-0.0234v-0.0313v-0.0234v-0.1563h0.0313
	h0.0313h0.0313h0.0313h0.1328h0.0625h0.0547v-0.0469v-0.0313v-0.1406v-0.0859v-0.0313v-0.0313V41.332v-0.0313V41.168v-0.0234
	v-0.0938l0.0313-0.0156l0.0313-0.0078l0.0313-0.0078l0.0234-0.0156l0.0391-0.0078c0.0078-0.0049,0.0156-0.0078,0.0234-0.0078
	c0.0078-0.0049,0.0156-0.0078,0.0234-0.0078c0.0078-0.0049,0.0156-0.0078,0.0234-0.0078l0.0234-0.0156l0.0625-0.0156
	c0.0059-0.0068,0.0107-0.0088,0.0156-0.0078c0.0059-0.0068,0.0107-0.0088,0.0156-0.0078l0.1172-0.0469
	C31.1006,40.8906,31.1055,40.9033,31.1055,40.918z"/>
</svg>
