<?xml version="1.0" encoding="utf-8"?>
<!-- Generator: Adobe Illustrator 20.1.0, SVG Export Plug-In . SVG Version: 6.00 Build 0)  -->
<svg version="1.0" id="Layer_1" xmlns="http://www.w3.org/2000/svg" xmlns:xlink="http://www.w3.org/1999/xlink" x="0px" y="0px"
	 viewBox="0 0 50 50" style="enable-background:new 0 0 50 50;" xml:space="preserve">
<style type="text/css">
	.st0{fill:#4679BB;}
</style>
<path class="st0" d="M24.9991,10.0205c7.709,0,13.9824,6.2715,13.9824,13.9814c0,7.709-6.2734,13.9805-13.9824,13.9805
	S11.0185,31.711,11.0185,24.0019C11.0185,16.292,17.2901,10.0205,24.9991,10.0205V9.832c-7.8125,0-14.168,6.3574-14.168,14.1699
	c0,7.8135,6.3555,14.166,14.168,14.166c7.8144,0,14.1699-6.3525,14.1699-14.166c0-7.8125-6.3555-14.1699-14.1699-14.1699V10.0205"/>
<path class="st0" d="M24.9991,10.4462c7.4609,0,13.5156,6.0567,13.5156,13.5157c0,7.4599-6.0547,13.5146-13.5156,13.5146
	c-7.459,0-13.5137-6.0547-13.5137-13.5146C11.4854,16.5029,17.5401,10.4462,24.9991,10.4462"/>
</svg>
