<?xml version="1.0" encoding="utf-8"?>
<!-- Generator: Adobe Illustrator 20.1.0, SVG Export Plug-In . SVG Version: 6.00 Build 0)  -->
<svg version="1.0" id="Layer_1" xmlns="http://www.w3.org/2000/svg" xmlns:xlink="http://www.w3.org/1999/xlink" x="0px" y="0px"
	 viewBox="0 0 50 50" style="enable-background:new 0 0 50 50;" xml:space="preserve">
<style type="text/css">
	.st0{fill:#4679BB;}
	.st1{fill:#FFFFFF;}
</style>
<path class="st0" d="M24.9996,9.9901c7.7304,0,14.0195,6.2881,14.0195,14.0176S32.73,38.0263,24.9996,38.0263
	c-7.7286,0-14.0176-6.2891-14.0176-14.0186C10.982,16.2782,17.271,9.9901,24.9996,9.9901V9.8495
	c-7.8067,0-14.1583,6.3506-14.1583,14.1582s6.3516,14.1602,14.1583,14.1602c7.8085,0,14.1591-6.3526,14.1591-14.1602
	S32.8081,9.8495,24.9996,9.8495V9.9901"/>
<path class="st0" d="M24.9996,10.4843c7.4667,0,13.5253,6.0586,13.5253,13.5234c0,7.4668-6.0586,13.5244-13.5253,13.5244
	c-7.4649,0-13.5235-6.0576-13.5235-13.5244C11.4761,16.5429,17.5347,10.4843,24.9996,10.4843"/>
<path class="st1" d="M18.4898,14.1552l-2.0811,1.9101l2.4363,0.1046c-2.9543,2.374-4.3985,6.3564-3.36,10.2636l1.8213-0.4854
	c-0.8808-3.2996,0.4361-6.6796,3.0352-8.5649l-0.1211,2.8442l2.082-1.9111l0.168-3.9824L18.4898,14.1552z"/>
<path class="st1" d="M36.0953,20.3163l-1.3158,2.0626c-0.5738-3.7529-3.3031-6.9976-7.2048-8.0449l-0.4834,1.8125
	c3.2908,0.881,5.5542,3.7189,5.8923,6.9189l-2.405-1.5293l0.6201,2.752l3.3613,2.1454l2.1436-3.3643L36.0953,20.3163z"/>
<path class="st1" d="M32.0132,30.8622l-1.3261-1.3272c-2.4114,2.4114-5.9969,2.9499-8.9275,1.6424l2.5056-1.3102l-2.6914-0.8506
	l-3.5332,1.8457l1.8398,3.543l2.6904,0.8427l-1.1275-2.1665C24.9822,34.4595,29.1581,33.7264,32.0132,30.8622z"/>
</svg>
