<?xml version="1.0" encoding="utf-8"?>
<!-- Generator: Adobe Illustrator 20.1.0, SVG Export Plug-In . SVG Version: 6.00 Build 0)  -->
<svg version="1.0" id="Layer_1" xmlns="http://www.w3.org/2000/svg" xmlns:xlink="http://www.w3.org/1999/xlink" x="0px" y="0px"
	 viewBox="0 0 50 50" style="enable-background:new 0 0 50 50;" xml:space="preserve">
<style type="text/css">
	.st0{fill:#4679BB;}
	.st1{fill:#FFFFFF;}
</style>
<path class="st0" d="M16.3622,12.4053c0-0.4121,0.334-0.7461,0.7461-0.7461c0.0039,0,0.0059,0,0.0098,0h15.7637
	c0.4101,0,0.7461,0.334,0.7461,0.7461v25.1924c0,0.4111-0.336,0.7441-0.7461,0.7441H17.1182c-0.4102,0-0.7559-0.333-0.7559-0.7441
	V12.4053"/>
<polyline class="st1" points="23.0243,36.9073 23.0243,21.0381 19.0616,25 19.0616,19.0577 25.0049,13.1045 30.9384,19.0577 
	30.9384,25 26.9853,21.0381 26.9853,36.9073 23.0243,36.9073 "/>
<path class="st0" d="M15.6924,12.4053c0-0.7871,0.6406-1.4267,1.4258-1.4267h15.7637c0.7871,0,1.4277,0.6396,1.4277,1.4267v25.1924
	c0,0.7861-0.6406,1.4248-1.4277,1.4248H17.1182c-0.7852,0-1.4258-0.6387-1.4258-1.4248V12.4053 M15.5401,37.5977
	c0,0.8701,0.709,1.5752,1.5781,1.5752h15.7637c0.8691,0,1.5781-0.7051,1.5781-1.5752V12.4053c0-0.8701-0.709-1.5781-1.5781-1.5781
	H17.1182c-0.8691,0-1.5781,0.708-1.5781,1.5781V37.5977z"/>
</svg>
