<?xml version="1.0" encoding="utf-8"?>
<!-- Generator: Adobe Illustrator 20.1.0, SVG Export Plug-In . SVG Version: 6.00 Build 0)  -->
<svg version="1.0" id="Layer_1" xmlns="http://www.w3.org/2000/svg" xmlns:xlink="http://www.w3.org/1999/xlink" x="0px" y="0px"
	 viewBox="0 0 50 50" style="enable-background:new 0 0 50 50;" xml:space="preserve">
<style type="text/css">
	.st0{fill-rule:evenodd;clip-rule:evenodd;fill:#FFFFFF;}
	.st1{fill-rule:evenodd;clip-rule:evenodd;fill:#1F1D1E;}
	.st2{fill-rule:evenodd;clip-rule:evenodd;fill:#C2242A;}
</style>
<polyline class="st0" points="16.2087,34.4299 10.5427,34.4299 24.9953,9.3732 39.3947,34.4299 16.2087,34.4299 "/>
<path class="st1" d="M26.8933,18.9963l-1.8877,0.6845l-2.2232,0.8096c-2.374,0.8633-4.1909,3.1826-4.1909,5.9893v5.9005h3.0669
	v-5.9005c0.0103-1.4473,0.918-2.6348,2.168-3.1123l2.2309-0.7997l1.8882-0.6924l0.917-1.961L26.8933,18.9963z"/>
<path class="st2" d="M38.9094,36.1476c0.7549,0,1.457-0.4131,1.834-1.0605c0.3789-0.6572,0.3789-1.4658,0-2.1328L26.8386,8.8976
	c-0.376-0.6621-1.0791-1.0713-1.8433-1.0713c-0.7627,0-1.4658,0.4092-1.8437,1.0713L9.2566,32.9543
	c-0.378,0.6582-0.378,1.4668,0,2.123c0.3779,0.666,1.0791,1.0703,1.8427,1.0703H38.9094 M12.3327,33.3058h25.3526L25.0056,11.3703
	L12.3327,33.3058z"/>
</svg>
