<?xml version="1.0" encoding="utf-8"?>
<!-- Generator: Adobe Illustrator 20.1.0, SVG Export Plug-In . SVG Version: 6.00 Build 0)  -->
<svg version="1.0" id="Layer_1" xmlns="http://www.w3.org/2000/svg" xmlns:xlink="http://www.w3.org/1999/xlink" x="0px" y="0px"
	 viewBox="0 0 50 50" style="enable-background:new 0 0 50 50;" xml:space="preserve">
<style type="text/css">
	.st0{fill-rule:evenodd;clip-rule:evenodd;fill:#4679BB;}
	.st1{fill-rule:evenodd;clip-rule:evenodd;fill:#CA252B;}
</style>
<path class="st0" d="M24.9765,12.2339c7.043,0,12.7558,5.7148,12.7558,12.7558c0,7.042-5.7128,12.7569-12.7558,12.7569
	c-7.041,0-12.7559-5.7149-12.7559-12.7569C12.2207,17.9487,17.9356,12.2339,24.9765,12.2339"/>
<polygon class="st1" points="35.1191,17.0776 32.9141,14.8813 24.9961,22.7993 17.0781,14.8813 14.873,17.0776 22.7954,25 
	14.873,32.9224 17.0781,35.1187 24.9961,27.2007 32.9141,35.1187 35.1191,32.9224 27.1968,25 "/>
<path class="st1" d="M14.9727,35.0201c5.5351,5.5381,14.5117,5.5381,20.0488,0c5.5391-5.5273,5.5391-14.5127,0-20.0391
	c-5.5371-5.5371-14.5137-5.5371-20.0488,0C9.4453,20.5074,9.4453,29.4928,14.9727,35.0201 M16.9804,33.0219
	c4.4297,4.4288,11.6152,4.4288,16.0351,0c4.4278-4.4296,4.4278-11.6123,0-16.0419c-4.4199-4.4307-11.6054-4.4307-16.0351,0
	C12.5508,21.4097,12.5508,28.5924,16.9804,33.0219z"/>
</svg>
