<?xml version="1.0" encoding="utf-8"?>
<!-- Generator: Adobe Illustrator 20.1.0, SVG Export Plug-In . SVG Version: 6.00 Build 0)  -->
<svg version="1.0" id="Layer_1" xmlns="http://www.w3.org/2000/svg" xmlns:xlink="http://www.w3.org/1999/xlink" x="0px" y="0px"
	 viewBox="0 0 50 50" style="enable-background:new 0 0 50 50;" xml:space="preserve">
<style type="text/css">
	.st0{fill:#CA252B;}
	.st1{fill:#FFFFFF;}
	.st2{fill:#262425;}
</style>
<path class="st0" d="M22.5373,11.0668c-7.6953,1.3564-12.8359,8.6924-11.4785,16.3886c1.3574,7.6944,8.7012,12.835,16.3965,11.4786
	c7.6953-1.3575,12.8379-8.7002,11.4883-16.3975C37.5871,14.8412,30.2424,9.7084,22.5373,11.0668"/>
<path class="st1" d="M23.0412,13.8519c-6.1572,1.0899-10.2656,6.96-9.1797,13.125c1.0899,6.1582,6.959,10.2676,13.1172,9.1885
	c6.1494-1.0889,10.2666-6.9668,9.1777-13.125C35.0686,16.8822,29.1994,12.765,23.0412,13.8519"/>
<path class="st2" d="M18.4025,26.5736c-0.8535,0-1.5468,0.6875-1.5468,1.5371c0,0.8486,0.6933,1.5381,1.5468,1.5381
	c0.8536,0,1.5469-0.6895,1.5469-1.5381C19.9494,27.2611,19.2561,26.5736,18.4025,26.5736z M18.4025,28.8832
	c-0.4257,0-0.7734-0.3457-0.7734-0.7725c0-0.4267,0.3477-0.7734,0.7734-0.7734c0.4268,0,0.7725,0.3467,0.7725,0.7734
	C19.175,28.5375,18.8293,28.8832,18.4025,28.8832z"/>
<path class="st2" d="M30.5666,26.5736c-0.8496,0-1.5391,0.6875-1.5391,1.5371c0,0.8486,0.6895,1.5381,1.5391,1.5381
	c0.8467,0,1.5352-0.6895,1.5352-1.5381C32.1018,27.2611,31.4133,26.5736,30.5666,26.5736z M30.5744,28.8832
	c-0.4277,0-0.7744-0.3457-0.7744-0.7725c0-0.4267,0.3467-0.7734,0.7744-0.7734s0.7735,0.3467,0.7735,0.7734
	C31.3479,28.5375,31.0021,28.8832,30.5744,28.8832z"/>
<path class="st2" d="M34.0451,20.7845c0-0.2099-0.168-0.3818-0.3779-0.3867H21.4953c-0.2139,0-0.3877,0.1729-0.3877,0.3867v3.4698
	h-0.7724v-2.1221c0-0.0029,0-0.0059,0-0.0088c0-0.208-0.1729-0.3769-0.3858-0.3769H17.341c-0.4668,0-0.8623,0.3408-0.9443,0.7988
	l-0.4033,2.3017v-0.0019c-0.2842,0.0439-0.4942,0.2842-0.4942,0.5684c0,0.039,0.0039,0.0781,0.0108,0.1162l0.0058,0.0097
	l0.5674,2.5713h0.6104c0-0.9336,0.7617-1.6904,1.6992-1.6904c0.9384,0,1.6992,0.7568,1.6992,1.6904h8.7832
	c0-0.9336,0.7617-1.6904,1.6992-1.6904s1.6992,0.7568,1.6992,1.6904h1.7793v-7.3262H34.0451z M18.9768,22.3578v1.8965h-2.2911
	l0.2784-1.6104c0.0371-0.1875,0.1982-0.3135,0.3769-0.3135h1.6358V22.3578z"/>
</svg>
